<?xml version="1.0" encoding="UTF-8" standalone="no"?>
<!DOCTYPE svg PUBLIC "-//W3C//DTD SVG 1.1//EN" "http://www.w3.org/Graphics/SVG/1.1/DTD/svg11.dtd">
<!-- Created with Vectornator (http://vectornator.io/) -->
<svg height="100%" stroke-miterlimit="10" style="fill-rule:nonzero;clip-rule:evenodd;stroke-linecap:round;stroke-linejoin:round;" version="1.1" viewBox="0 0 500 500" width="100%" xml:space="preserve" xmlns="http://www.w3.org/2000/svg" xmlns:vectornator="http://vectornator.io" xmlns:xlink="http://www.w3.org/1999/xlink">
<defs/>
<g id="Untitled" vectornator:layerName="Untitled">
<g opacity="1" vectornator:layerName="Floor">
<g opacity="1" vectornator:layerName="path">
<clipPath clip-rule="nonzero" id="ClipPath">
<path d="M0 0L500 0L500 500L0 500L0 0Z"/>
</clipPath>
<g clip-path="url(#ClipPath)">
<path d="M83.9632 315.016C-7.7338 353.886-7.7318 416.907 83.9682 455.778C175.668 494.648 324.34 494.648 416.037 455.778C507.733 416.907 507.731 353.886 416.032 315.016C324.332 276.146 175.66 276.146 83.9632 315.016" fill="#fafafa" fill-rule="nonzero" opacity="1" stroke="none" vectornator:layerName="path"/>
</g>
</g>
<g opacity="1" vectornator:layerName="path">
<clipPath clip-rule="nonzero" id="ClipPath_2">
<path d="M0 0L500 0L500 500L0 500L0 0Z"/>
</clipPath>
<g clip-path="url(#ClipPath_2)">
<g opacity="0.0700073" vectornator:layerName="path">
<clipPath clip-rule="nonzero" id="ClipPath_3">
<path d="M73.9222 327.694L390.185 327.694L390.185 37.773L73.9222 37.773L73.9222 327.694Z"/>
</clipPath>
<g clip-path="url(#ClipPath_3)">
<path d="M80.4189 194.961C81.2399 192.999 82.1369 191.069 83.1109 189.176C94.5669 166.902 115.416 150.841 128.444 129.448C134.473 119.547 138.729 108.656 144.662 98.6957C147.946 93.1827 151.741 87.9747 155.975 83.1527C185.17 49.9017 230.895 34.9057 274.46 38.2237C316.496 41.4257 356.851 62.7957 377.207 100.701C383.639 112.679 387.796 125.874 389.39 139.376C395.874 194.313 361.801 250.891 320.192 284.183C293.97 305.163 262.159 319.055 229.219 325.243C197.287 331.243 159.872 326.07 130.79 311.477C104.912 298.492 83.2489 275.417 76.3079 247.307C72.0399 230.021 73.5499 211.378 80.4189 194.961" fill="#d268cc" fill-rule="nonzero" opacity="1" stroke="none" vectornator:layerName="path"/>
</g>
</g>
<g opacity="0.0700073" vectornator:layerName="path">
<clipPath clip-rule="nonzero" id="ClipPath_4">
<path d="M111.454 102.146L172.179 102.146L172.179 39.352L111.454 39.352L111.454 102.146Z"/>
</clipPath>
<g clip-path="url(#ClipPath_4)">
<path d="M130.739 98.3803C121.747 106.275 113.333 100.939 111.84 89.9633C110.333 78.8883 113.285 67.2713 119.896 58.2583C128.831 46.0783 145.427 36.3653 160.79 40.2003C167.836 41.9593 176.294 49.6023 169.932 56.9143C168.429 58.6423 166.466 59.8893 164.573 61.1783C157.603 65.9243 151.93 72.7513 146.358 79.0803C140.938 85.2383 136.725 93.1243 130.739 98.3803" fill="#d268cc" fill-rule="nonzero" opacity="1" stroke="none" vectornator:layerName="path"/>
</g>
</g>
</g>
</g>
<g opacity="1" vectornator:layerName="path">
<clipPath clip-rule="nonzero" id="ClipPath_5">
<path d="M0 0L500 0L500 500L0 500L0 0Z"/>
</clipPath>
<g clip-path="url(#ClipPath_5)">
<path d="M182.117 355.329C215.372 374.529 215.372 405.658 182.117 424.859C148.861 444.059 94.9429 444.059 61.6879 424.859C28.4319 405.659 28.4329 374.529 61.6879 355.329C94.9439 336.129 148.862 336.129 182.117 355.329" fill="#e1e1e1" fill-rule="nonzero" opacity="1" stroke="none" vectornator:layerName="path"/>
<path d="M262.46 340.193C305.248 315.489 374.62 315.489 417.408 340.193C460.195 364.896 460.195 404.948 417.407 429.652C374.619 454.355 305.247 454.355 262.46 429.652C219.672 404.949 219.672 364.897 262.46 340.193" fill="#e1e1e1" fill-rule="nonzero" opacity="1" stroke="none" vectornator:layerName="path"/>
</g>
</g>
<g opacity="1" vectornator:layerName="path">
<clipPath clip-rule="nonzero" id="ClipPath_6">
<path d="M0 0L500 0L500 500L0 500L0 0Z"/>
</clipPath>
<g clip-path="url(#ClipPath_6)">
<path d="M434.388 220.651C433.023 221.162 431.97 222.266 430.688 222.959C428.76 224.001 426.416 224.065 424.503 225.133C422.019 226.522 420.656 229.583 421.101 232.394C421.546 235.204 423.677 237.633 426.343 238.627C428.204 239.321 430.183 239.6 432.053 240.297C433.746 240.928 435.165 242.025 437.003 242.365C438.688 242.678 440.507 242.468 441.966 241.569C442.921 240.982 443.531 240.294 444.021 239.28C444.782 237.7 445.64 235.288 445.17 233.516C444.737 231.884 443.545 230.695 442.704 229.287C441.822 227.809 441.537 226.062 440.963 224.44C439.982 221.665 437.461 219.5 434.388 220.651" fill="#f5f5f5" fill-rule="nonzero" opacity="1" stroke="none" vectornator:layerName="path"/>
<path d="M426.805 221.145C427.252 220.895 427.655 220.569 428.054 220.245C429.226 219.292 429.503 218.172 429.284 216.677C429.109 215.472 428.608 214.339 428.038 213.262C427.629 212.491 427.087 211.637 426.441 211.038C425.999 210.629 425.391 210.367 424.795 210.453C423.94 210.577 423.339 211.348 422.915 212.101C422.261 213.261 421.798 214.528 421.55 215.837C421.347 216.905 421.291 218.027 421.609 219.067C421.927 220.107 422.665 221.057 423.685 221.434C424.59 221.767 425.693 221.68 426.556 221.273C426.641 221.233 426.724 221.19 426.805 221.145" fill="#f5f5f5" fill-rule="nonzero" opacity="1" stroke="none" vectornator:layerName="path"/>
<path d="M431.65 208.512C432.312 206.514 433.572 204.785 435.748 204.536C438.292 204.244 439.455 207.239 439.502 209.306C439.551 211.476 439.076 214.017 437.678 215.742C435.862 217.986 433.118 217.375 431.841 214.954C430.828 213.035 430.983 210.525 431.65 208.512" fill="#f5f5f5" fill-rule="nonzero" opacity="1" stroke="none" vectornator:layerName="path"/>
<path d="M446.054 228.18C445.833 227.718 445.692 227.218 445.554 226.724C445.147 225.269 445.568 224.195 446.609 223.1C447.448 222.218 448.512 221.582 449.598 221.032C450.378 220.638 451.313 220.254 452.186 220.138C452.783 220.059 453.431 220.196 453.868 220.61C454.495 221.205 454.54 222.181 454.452 223.041C454.316 224.366 453.962 225.668 453.41 226.88C452.958 227.869 452.357 228.817 451.497 229.483C450.637 230.149 449.486 230.498 448.435 230.217C447.504 229.967 446.654 229.259 446.183 228.428C446.137 228.347 446.094 228.264 446.054 228.18" fill="#f5f5f5" fill-rule="nonzero" opacity="1" stroke="none" vectornator:layerName="path"/>
<path d="M450.083 214.826C450.678 212.807 450.629 210.669 448.983 209.223C447.06 207.533 444.397 209.331 443.18 211.002C441.902 212.756 440.844 215.115 441.008 217.329C441.221 220.208 443.824 221.27 446.253 220.01C448.18 219.01 449.483 216.86 450.083 214.826" fill="#f5f5f5" fill-rule="nonzero" opacity="1" stroke="none" vectornator:layerName="path"/>
<path d="M69.5227 127.572C68.1577 128.083 67.1047 129.187 65.8227 129.88C63.8947 130.922 61.5507 130.986 59.6377 132.054C57.1537 133.443 55.7907 136.504 56.2357 139.315C56.6807 142.125 58.8107 144.554 61.4777 145.548C63.3387 146.242 65.3177 146.521 67.1877 147.218C68.8807 147.849 70.2997 148.946 72.1377 149.286C73.8227 149.599 75.6417 149.389 77.1007 148.49C78.0557 147.903 78.6657 147.215 79.1557 146.201C79.9167 144.621 80.7747 142.209 80.3047 140.437C79.8717 138.805 78.6797 137.616 77.8387 136.208C76.9567 134.73 76.6717 132.983 76.0977 131.361C75.1167 128.586 72.5957 126.421 69.5227 127.572" fill="#f5f5f5" fill-rule="nonzero" opacity="1" stroke="none" vectornator:layerName="path"/>
<path d="M61.9396 128.067C62.3866 127.817 62.7896 127.491 63.1886 127.167C64.3606 126.214 64.6366 125.094 64.4186 123.599C64.2436 122.394 63.7426 121.261 63.1726 120.184C62.7636 119.413 62.2216 118.559 61.5756 117.96C61.1346 117.551 60.5256 117.289 59.9296 117.375C59.0746 117.499 58.4736 118.27 58.0496 119.023C57.3956 120.183 56.9326 121.45 56.6846 122.759C56.4816 123.827 56.4256 124.949 56.7436 125.989C57.0616 127.029 57.7996 127.979 58.8196 128.356C59.7246 128.689 60.8276 128.602 61.6906 128.195C61.7756 128.155 61.8586 128.112 61.9396 128.067" fill="#f5f5f5" fill-rule="nonzero" opacity="1" stroke="none" vectornator:layerName="path"/>
<path d="M66.7839 115.434C67.4459 113.436 68.7059 111.707 70.8819 111.458C73.4259 111.166 74.5889 114.161 74.6359 116.229C74.6849 118.398 74.2089 120.939 72.8119 122.664C70.9959 124.908 68.2519 124.297 66.9749 121.876C65.9619 119.957 66.1169 117.447 66.7839 115.434" fill="#f5f5f5" fill-rule="nonzero" opacity="1" stroke="none" vectornator:layerName="path"/>
<path d="M81.1881 135.101C80.9671 134.639 80.8261 134.139 80.6881 133.645C80.2811 132.19 80.7021 131.116 81.7431 130.021C82.5821 129.139 83.6461 128.503 84.7321 127.953C85.5121 127.559 86.4471 127.175 87.3201 127.059C87.9171 126.98 88.5651 127.117 89.0021 127.531C89.6291 128.126 89.6741 129.102 89.5861 129.962C89.4501 131.287 89.0961 132.589 88.5441 133.801C88.0921 134.79 87.4911 135.738 86.6311 136.404C85.7711 137.07 84.6201 137.419 83.5691 137.138C82.6381 136.888 81.7881 136.18 81.3171 135.349C81.2711 135.268 81.2281 135.185 81.1881 135.101" fill="#f5f5f5" fill-rule="nonzero" opacity="1" stroke="none" vectornator:layerName="path"/>
<path d="M85.2173 121.747C85.8123 119.728 85.7633 117.59 84.1173 116.144C82.1943 114.454 79.5313 116.251 78.3143 117.923C77.0363 119.677 75.9783 122.036 76.1423 124.25C76.3553 127.129 78.9583 128.191 81.3873 126.931C83.3143 125.931 84.6173 123.781 85.2173 121.747" fill="#f5f5f5" fill-rule="nonzero" opacity="1" stroke="none" vectornator:layerName="path"/>
<path d="M423.628 94.1482C422.959 95.8412 423.1 97.7432 422.669 99.5122C422.021 102.172 420.118 104.399 419.507 107.067C418.714 110.533 420.411 114.362 423.39 116.303C426.369 118.244 430.405 118.302 433.56 116.662C435.762 115.517 437.678 113.915 439.89 112.765C441.893 111.724 444.098 111.326 445.953 109.907C447.654 108.606 448.982 106.744 449.371 104.638C449.626 103.261 449.5 102.119 448.968 100.816C448.141 98.7872 446.623 95.9722 444.586 94.9242C442.71 93.9582 440.61 94.0692 438.6 93.6692C436.491 93.2492 434.632 92.0512 432.647 91.2242C429.253 89.8102 425.135 90.3352 423.628 94.1482" fill="#f5f5f5" fill-rule="nonzero" opacity="1" stroke="none" vectornator:layerName="path"/>
<path d="M417.737 101.594C417.88 100.97 417.915 100.323 417.948 99.6821C418.047 97.7971 417.239 96.6031 415.67 95.5531C414.405 94.7071 412.935 94.2231 411.46 93.8501C410.402 93.5831 409.157 93.3701 408.061 93.4681C407.311 93.5351 406.559 93.8791 406.139 94.5041C405.538 95.4011 405.75 96.6041 406.093 97.6281C406.621 99.2051 407.409 100.696 408.414 102.022C409.235 103.104 410.228 104.096 411.458 104.672C412.689 105.248 414.188 105.359 415.392 104.729C416.459 104.169 417.301 103.074 417.647 101.932C417.681 101.82 417.711 101.707 417.737 101.594" fill="#f5f5f5" fill-rule="nonzero" opacity="1" stroke="none" vectornator:layerName="path"/>
<path d="M410.079 86.5229C408.781 84.2359 408.233 81.6199 409.824 79.3929C411.684 76.7899 415.434 78.2199 417.391 79.9079C419.444 81.6789 421.402 84.2479 421.832 86.9879C422.391 90.5509 419.526 92.5839 416.212 91.7409C413.584 91.0729 411.387 88.8269 410.079 86.5229" fill="#f5f5f5" fill-rule="nonzero" opacity="1" stroke="none" vectornator:layerName="path"/>
<path d="M440.378 89.6362C439.764 89.4542 439.184 89.1662 438.609 88.8802C436.919 88.0402 436.276 86.7502 436.133 84.8672C436.017 83.3502 436.318 81.8312 436.718 80.3642C437.005 79.3112 437.432 78.1222 438.056 77.2152C438.482 76.5962 439.152 76.1092 439.903 76.0512C440.979 75.9682 441.922 76.7442 442.646 77.5452C443.76 78.7812 444.671 80.1992 445.332 81.7262C445.871 82.9742 446.247 84.3252 446.144 85.6802C446.041 87.0352 445.401 88.3952 444.261 89.1342C443.249 89.7882 441.881 89.9842 440.716 89.7242C440.602 89.6992 440.49 89.6692 440.378 89.6362" fill="#f5f5f5" fill-rule="nonzero" opacity="1" stroke="none" vectornator:layerName="path"/>
<path d="M431.37 74.7171C429.996 72.4751 427.972 70.7291 425.254 71.0441C422.076 71.4131 421.513 75.3871 422.043 77.9161C422.599 80.5701 423.901 83.5261 426.091 85.2281C428.939 87.4411 432.104 85.9171 432.97 82.6091C433.656 79.9861 432.754 76.9761 431.37 74.7171" fill="#f5f5f5" fill-rule="nonzero" opacity="1" stroke="none" vectornator:layerName="path"/>
<path d="M39.0331 272.758C38.4151 274.322 38.5461 276.079 38.1471 277.713C37.5491 280.17 35.7901 282.227 35.2261 284.692C34.4941 287.893 36.0611 291.43 38.8131 293.223C41.5651 295.016 45.2931 295.069 48.2071 293.554C50.2421 292.497 52.0111 291.017 54.0541 289.955C55.9051 288.993 57.9411 288.626 59.6551 287.315C61.2261 286.113 62.4531 284.393 62.8131 282.448C63.0481 281.176 62.9311 280.121 62.4401 278.917C61.6761 277.043 60.2741 274.443 58.3921 273.474C56.6601 272.583 54.7191 272.685 52.8631 272.315C50.9151 271.928 49.1981 270.821 47.3641 270.057C44.2291 268.751 40.4251 269.236 39.0331 272.758" fill="#f5f5f5" fill-rule="nonzero" opacity="1" stroke="none" vectornator:layerName="path"/>
<path d="M33.5911 279.636C33.7231 279.06 33.7551 278.462 33.7861 277.87C33.8771 276.129 33.1311 275.026 31.6821 274.056C30.5141 273.275 29.1551 272.827 27.7931 272.483C26.8161 272.236 25.6651 272.04 24.6531 272.13C23.9611 272.191 23.2651 272.51 22.8781 273.087C22.3231 273.915 22.5181 275.026 22.8351 275.972C23.3231 277.429 24.0501 278.806 24.9791 280.031C25.7381 281.031 26.6551 281.947 27.7911 282.479C28.9281 283.011 30.3131 283.114 31.4251 282.531C32.4101 282.015 33.1891 281.003 33.5081 279.948C33.5401 279.845 33.5671 279.741 33.5911 279.636" fill="#f5f5f5" fill-rule="nonzero" opacity="1" stroke="none" vectornator:layerName="path"/>
<path d="M26.5176 265.714C25.3186 263.602 24.8116 261.185 26.2816 259.128C27.9996 256.724 31.4646 258.045 33.2716 259.603C35.1686 261.239 36.9766 263.612 37.3736 266.143C37.8906 269.435 35.2436 271.312 32.1826 270.534C29.7556 269.917 27.7256 267.842 26.5176 265.714" fill="#f5f5f5" fill-rule="nonzero" opacity="1" stroke="none" vectornator:layerName="path"/>
<path d="M54.5057 268.59C53.9387 268.422 53.4027 268.156 52.8717 267.892C51.3107 267.116 50.7167 265.924 50.5837 264.185C50.4777 262.784 50.7547 261.381 51.1247 260.025C51.3907 259.053 51.7847 257.954 52.3607 257.117C52.7547 256.544 53.3737 256.095 54.0667 256.042C55.0607 255.965 55.9317 256.681 56.6007 257.422C57.6297 258.563 58.4717 259.873 59.0817 261.284C59.5797 262.436 59.9267 263.684 59.8317 264.936C59.7367 266.188 59.1457 267.444 58.0927 268.126C57.1577 268.731 55.8937 268.911 54.8177 268.671C54.7127 268.648 54.6087 268.621 54.5057 268.59" fill="#f5f5f5" fill-rule="nonzero" opacity="1" stroke="none" vectornator:layerName="path"/>
<path d="M46.1841 254.809C44.9151 252.738 43.0461 251.125 40.5341 251.417C37.5991 251.757 37.0791 255.428 37.5681 257.764C38.0831 260.215 39.2851 262.946 41.3081 264.518C43.9391 266.562 46.8621 265.155 47.6621 262.099C48.2961 259.676 47.4631 256.896 46.1841 254.809" fill="#f5f5f5" fill-rule="nonzero" opacity="1" stroke="none" vectornator:layerName="path"/>
</g>
</g>
<g opacity="1" vectornator:layerName="path">
<clipPath clip-rule="nonzero" id="ClipPath_7">
<path d="M0 0L500 0L500 500L0 500L0 0Z"/>
</clipPath>
<g clip-path="url(#ClipPath_7)">
<path d="M161.971 309.738C163.253 310.449 164.473 311.268 165.612 312.202C167.52 313.767 169.173 315.627 170.628 317.621C176.871 326.182 179.267 338.026 174.794 347.631C170.065 357.783 159.643 363.668 148.461 363.045C153.944 364.26 157.962 363.507 163.115 365.108C165.719 365.918 167.672 368.735 168.174 371.414C168.677 374.093 167.854 376.844 164.468 376.844C164.43 378.162 161.974 380.562 157.56 379.352C157.332 380.319 156.784 382.069 149.416 380.831C142.049 379.592 120.497 370.857 111.729 365.862C108.82 364.205 105.322 362.222 102.021 359.213C96.6409 354.56 93.0839 347.783 91.4679 340.776C89.4249 331.915 90.1319 322.66 91.3569 313.649C93.3279 299.144 96.7879 282.146 113.263 278.218C115.154 277.767 117.14 277.539 119.04 277.953C122.094 278.618 124.597 280.883 126.297 283.507C130.198 289.531 130.358 297.185 129.939 304.351C129.596 310.229 133.951 307.337 137.687 306.722C141.528 306.088 145.436 305.791 149.324 306.098C153.726 306.445 158.126 307.605 161.971 309.738" fill="#2b454e" fill-rule="nonzero" opacity="1" stroke="none" vectornator:layerName="path"/>
<path d="M164.465 376.87C164.985 373.759 164.789 370.028 161.843 368.751C158.897 367.475 153.497 367.769 153.497 367.769C153.497 367.769 160.665 366.689 163.316 368.358C165.967 370.028 165.32 374.483 164.465 376.87" fill="#182e35" fill-rule="nonzero" opacity="1" stroke="none" vectornator:layerName="path"/>
<path d="M157.56 379.355C158.08 376.244 157.884 372.513 154.938 371.236C151.992 369.96 146.592 370.254 146.592 370.254C146.592 370.254 153.76 369.174 156.411 370.843C159.062 372.513 158.415 376.968 157.56 379.355" fill="#182e35" fill-rule="nonzero" opacity="1" stroke="none" vectornator:layerName="path"/>
<path d="M141.865 353.91C140.389 354.068 138.726 353.34 138.248 351.934C139.532 355.163 137.48 358.997 134.438 360.675C131.396 362.354 127.696 362.313 124.269 361.743C112.036 359.709 100.895 350.786 97.3581 338.9C95.4741 332.568 95.7171 325.757 97.0291 319.282C98.9741 309.685 103.25 300.579 109.319 292.893C114.01 286.952 120.078 281.682 127.442 279.927C134.806 278.172 143.547 280.773 147.228 287.388C148.479 289.637 149.092 292.186 149.459 294.733C150.812 304.134 148.99 313.651 150.135 323.062C150.864 329.052 152.35 335.193 151.193 341.227C150.256 346.115 147.775 353.277 141.865 353.91" fill="#f0f0f0" fill-rule="nonzero" opacity="1" stroke="none" vectornator:layerName="path"/>
<path d="M108.882 327.495C112.293 325.86 116.253 325.717 119.993 326.28C122.716 326.69 125.591 327.594 127.214 329.818C127.568 327.991 130.19 327.47 131.753 328.48C133.316 329.491 134.043 331.366 134.673 333.117C135.107 330.494 135.801 327.498 138.169 326.289C140.615 325.041 143.848 326.731 145.491 328.605C146.823 330.122 147.637 332.027 148.218 333.96C148.625 333.11 149.844 333.12 150.741 333.407C151.006 333.492 151.257 333.605 151.51 333.713C151.694 336.224 151.671 338.734 151.193 341.227C150.256 346.115 147.775 353.277 141.865 353.91C140.389 354.068 138.726 353.34 138.248 351.934C139.532 355.163 137.48 358.997 134.438 360.675C131.396 362.354 127.696 362.313 124.269 361.743C120.727 361.154 117.278 359.984 114.078 358.336C110.044 354.014 106.902 348.875 104.419 343.494C103.361 341.201 102.395 338.761 102.527 336.239C102.724 332.462 105.471 329.13 108.882 327.495" fill="#e1e1e1" fill-rule="nonzero" opacity="1" stroke="none" vectornator:layerName="path"/>
<path d="M178.597 254.729C178.836 255.153 179.072 255.58 179.303 256.008C183.094 263.035 185.546 271.373 182.996 279.241C180.327 287.476 172.866 294.328 165.843 298.983C162.021 301.516 150.757 307.71 147.366 301.415C146.449 299.712 146.504 297.678 146.446 295.745C146.374 293.281 146.032 290.692 144.553 288.721C143.074 286.749 140.136 285.688 138.049 287C136.377 288.052 135.772 290.19 135.581 292.156C135.389 294.123 135.459 296.183 134.606 297.965C134.394 298.409 134.108 298.846 133.671 299.072C133.059 299.391 132.309 299.224 131.637 299.385C127.353 300.411 128.609 312.058 129.047 315.142C129.242 316.514 129.208 318.304 127.916 318.803C127.007 319.154 126.026 318.604 125.175 318.129C123.215 317.038 121.081 316.258 118.879 315.829C118.132 315.683 117.147 315.7 116.865 316.406C116.606 317.055 117.172 317.705 117.608 318.251C118.353 319.186 118.819 320.34 118.934 321.53C118.965 321.856 118.959 322.221 118.738 322.463C118.529 322.692 118.193 322.743 117.883 322.767C116.152 322.907 114.411 322.685 112.675 322.724C108.051 322.829 103.81 327.104 104.022 331.763C115.373 326.977 126.205 334.792 132.383 343.865C135.753 348.814 137.566 354.882 137.063 360.849C136.625 366.049 135.293 369.767 132.326 374.061C129.011 378.858 119.837 384.426 114.506 384.271C114.51 384.273 117.023 385.152 122.128 386.021C130.099 387.376 132.597 386.539 136.58 387.776C139.185 388.586 141.137 391.403 141.64 394.083C142.142 396.762 141.32 399.513 137.934 399.513C137.896 400.831 135.44 403.23 131.026 402.021C130.797 402.988 130.249 404.737 122.882 403.499C115.514 402.261 93.9628 393.525 85.1948 388.531C82.2848 386.873 78.7878 384.89 75.4868 381.881C70.1068 377.229 66.5488 370.451 64.9338 363.444C62.8898 354.583 63.5978 345.328 64.8218 336.318C69.9308 298.723 90.4668 280.211 98.1868 272.407C104.221 266.31 111.203 261.672 118.639 257.476C125.602 253.546 128.62 251.555 134.498 246.369C139.606 241.863 141.936 239.513 145.194 234.992C147.029 232.446 148.53 228.557 151.048 224.483C151.048 224.483 158.92 231.724 161.504 233.937C168.353 239.803 174.165 246.876 178.597 254.729" fill="#365a64" fill-rule="nonzero" opacity="1" stroke="none" vectornator:layerName="path"/>
<path d="M137.931 399.538C138.451 396.427 138.255 392.696 135.309 391.419C132.363 390.143 126.963 390.437 126.963 390.437C126.963 390.437 134.131 389.357 136.782 391.026C139.433 392.696 138.786 397.151 137.931 399.538" fill="#182e35" fill-rule="nonzero" opacity="1" stroke="none" vectornator:layerName="path"/>
<path d="M131.025 402.024C131.545 398.913 131.349 395.182 128.403 393.905C125.457 392.629 120.057 392.923 120.057 392.923C120.057 392.923 127.225 391.843 129.876 393.512C132.527 395.182 131.88 399.637 131.025 402.024" fill="#182e35" fill-rule="nonzero" opacity="1" stroke="none" vectornator:layerName="path"/>
<path d="M228.145 278.799C230.232 280.817 232.254 282.901 234.145 285.115C236.627 288.022 224.121 311.384 221.488 311.668C216.656 312.188 211.151 310.186 206.187 307.98C204.216 307.104 202.163 306.197 200.007 306.27C196.283 306.396 193.53 309.247 190.707 311.308C187.441 313.692 183.648 315.221 179.841 316.521C175.88 317.874 174.392 317.893 171.536 318.389C170.905 318.499 170.309 326.662 170.215 327.527C169.818 331.215 169.546 334.915 169.336 338.618C168.935 345.66 167.768 352.596 166.61 359.575C164.816 370.389 165.901 383.169 173.864 391.532C179.197 397.131 183.723 396.271 183.37 402.547C183.271 403.139 182.616 405.579 180.013 405.567C179.261 408.196 175.731 407.86 175.731 407.86C175.731 407.86 174.628 411.186 164.302 408.3C158.84 406.774 157.608 400.046 156.453 396.721C156.453 395.491 155.347 393.782 154.94 392.625C154.329 390.89 153.81 389.118 153.256 387.365C152.073 383.623 150.918 379.873 149.79 376.114C148.972 373.387 148.164 370.635 147.9 367.8C147.698 365.627 147.819 363.439 147.896 361.258C147.93 360.29 147.955 359.322 147.972 358.353C148.17 346.962 147.235 335.364 145.591 324.128C144.514 316.763 142.966 309.567 140.603 302.504C133.095 280.059 153.385 223.24 168.642 223.509C179.258 223.82 198.465 225.205 201.433 243.518C202.987 253.108 207.714 259.469 214.521 266.151C218.94 270.49 223.692 274.495 228.145 278.799" fill="#365a64" fill-rule="nonzero" opacity="1" stroke="none" vectornator:layerName="path"/>
<path d="M175.731 407.86C176.194 406.491 176.571 404.249 174.586 403.376C172.601 402.502 170.307 401.331 170.307 401.331C170.307 401.331 174.724 402.616 175.72 403.242C176.715 403.868 177.099 405.75 175.731 407.86" fill="#2b454e" fill-rule="nonzero" opacity="1" stroke="none" vectornator:layerName="path"/>
<path d="M180.011 405.569C180.474 404.2 180.851 401.959 178.866 401.085C176.881 400.212 174.587 399.041 174.587 399.041C174.587 399.041 179.004 400.325 180 400.951C180.995 401.577 181.379 403.459 180.011 405.569" fill="#2b454e" fill-rule="nonzero" opacity="1" stroke="none" vectornator:layerName="path"/>
<path d="M184.827 256.853C184.072 258.936 183.126 260.939 181.898 262.784C179.674 266.127 176.615 268.816 174.024 271.883C171.432 274.95 169.229 278.655 169.274 282.67C169.264 282.405 172.817 281.067 173.206 280.914C172.643 282.5 171.371 283.877 170.818 285.588C170.203 287.487 169.967 289.511 170.169 291.499C171.295 289.765 172.767 288.258 174.474 287.091C173.802 287.55 173.551 290.311 173.423 291.086C173.187 292.508 173.088 293.953 173.13 295.394C173.199 297.733 173.341 300.074 173.35 302.442C173.371 307.841 173.039 313.174 171.535 318.39C171.535 318.39 174.212 318.295 178.457 317.074C182.834 315.816 186.83 313.918 189.98 312.165C196.07 308.776 198.999 305.78 202.726 299.891C213.111 283.481 206.082 261.312 192.304 249.245C191.61 248.638 190.873 248.037 189.992 247.763C189.112 247.488 188.048 247.609 187.425 248.289C186.966 248.788 186.816 249.488 186.676 250.152C186.197 252.415 185.616 254.678 184.827 256.853" fill="#f0f0f0" fill-rule="nonzero" opacity="1" stroke="none" vectornator:layerName="path"/>
<path d="M195.939 182.986C195.515 181.709 195.38 180.299 194.305 179.368C193.04 178.273 191.277 178.08 190.618 176.339C190.213 175.268 190.385 173.998 191.059 173.073C192.229 171.469 194.463 171.173 196.442 171.028C199.808 170.781 203.215 170.579 206.537 171.172C209.86 171.765 213.134 173.233 215.297 175.823C216.195 176.9 216.878 178.136 217.599 179.338C219.044 181.751 220.665 184.059 222.444 186.238C222.889 186.783 223.374 187.433 223.216 188.119C223.016 188.987 221.929 189.302 221.039 189.255C220.001 189.2 218.978 188.871 218.102 188.311C218.938 190.134 219.773 191.958 220.608 193.781C221.189 195.048 221.783 196.4 221.603 197.782C221.365 199.609 219.598 201.103 217.757 201.035C218.495 201.062 219.21 205.532 219.274 206.141C219.437 207.72 218.956 209.534 218.101 210.881C216.383 213.585 212.33 213.865 209.746 212.348C206.845 210.644 204.901 207.638 203.661 204.583C202.214 201.02 201.778 197.024 200.162 193.545C198.564 190.105 197.141 186.609 195.939 182.986" fill="#000000" fill-rule="nonzero" opacity="1" stroke="none" vectornator:layerName="path"/>
<path d="M201.387 231.498C200.436 233.701 200.366 236.794 201.267 243.343C198.514 244.785 183.338 250.282 170.106 246.991C156.875 243.701 149.926 239.634 145.552 235.138C151.765 216.536 150.318 196.242 150.318 196.242L201.387 231.498Z" fill="#365a64" fill-rule="nonzero" opacity="1" stroke="none" vectornator:layerName="path"/>
<path d="M183.195 174.976C194.037 173.559 196.901 176.442 201.21 179.317C205.519 182.192 208.116 185.997 209.96 188.969C211.805 191.941 210.565 198.078 211.307 200.188C212.048 202.298 217.591 206.849 219.218 210.569C220.846 214.29 219.636 217.678 218.686 222.816C217.736 227.955 213.831 228.802 213.831 228.802C213.831 228.802 211.506 233.332 206.465 234.847C201.423 236.362 194.174 233.424 194.174 233.424C194.174 233.424 191.29 236.918 184.017 235.051C173.35 232.311 172.359 233.94 166.649 231.993C156.685 228.596 155.789 223.978 151.576 215.176C147.362 206.374 147.169 197.432 157.369 186.43C165.375 177.796 174.191 176.153 183.195 174.976" fill="#365a64" fill-rule="nonzero" opacity="1" stroke="none" vectornator:layerName="path"/>
<path d="M215.704 205.643C212.696 203.926 209.513 202.531 206.712 200.441C201.498 196.548 197.808 191.089 193.348 186.419C192.466 185.494 190.18 183.402 190.228 184.303C190.276 185.203 191.416 187.682 192.29 189.253C194.459 193.152 196.996 197.202 197.656 201.749C198.317 206.305 195.944 209.755 192.553 212.57C190.221 214.507 187.637 216.329 186.238 219.018C184.844 221.696 184.473 225.89 186.595 228.24C188.63 230.494 191.496 232.064 194.174 233.424C194.174 233.424 201.423 236.361 206.464 234.846C211.506 233.332 213.831 228.802 213.831 228.802C213.831 228.802 217.736 227.954 218.686 222.816C219.636 217.677 220.845 214.289 219.218 210.569C218.529 208.993 217.136 207.268 215.704 205.643" fill="#e1e1e1" fill-rule="nonzero" opacity="1" stroke="none" vectornator:layerName="path"/>
<path d="M195.761 223.022C195.889 223.255 195.804 223.549 195.571 223.677C195.338 223.805 195.045 223.72 194.916 223.487C194.788 223.254 194.873 222.96 195.106 222.832C195.34 222.704 195.633 222.789 195.761 223.022" fill="#2b454e" fill-rule="nonzero" opacity="1" stroke="none" vectornator:layerName="path"/>
<path d="M199.994 222.039C200.122 222.272 200.037 222.565 199.804 222.694C199.571 222.822 199.277 222.737 199.149 222.504C199.021 222.27 199.106 221.977 199.339 221.849C199.572 221.72 199.866 221.806 199.994 222.039" fill="#2b454e" fill-rule="nonzero" opacity="1" stroke="none" vectornator:layerName="path"/>
<path d="M199.103 225.835C199.231 226.068 199.146 226.361 198.913 226.49C198.68 226.618 198.387 226.533 198.258 226.3C198.13 226.066 198.215 225.773 198.448 225.645C198.681 225.517 198.975 225.602 199.103 225.835" fill="#2b454e" fill-rule="nonzero" opacity="1" stroke="none" vectornator:layerName="path"/>
<path d="M207.096 226.652C207.527 226.252 207.987 225.872 208.509 225.597C209.012 225.333 209.339 224.948 209.799 224.607C209.92 224.517 210.051 224.429 210.201 224.414C210.406 224.393 210.596 224.511 210.765 224.628C211.818 225.356 212.627 226.204 213.41 227.202C213.437 227.236 213.465 227.276 213.456 227.319C213.449 227.351 213.422 227.374 213.397 227.395C211.603 228.861 209.073 229.375 206.85 228.726C206.399 228.595 205.57 228.352 205.948 227.804C206.256 227.358 206.702 227.017 207.096 226.652" fill="#000000" fill-rule="nonzero" opacity="1" stroke="none" vectornator:layerName="path"/>
<path d="M191.564 233.25C191.654 234.522 191.993 235.848 192.937 236.694C193.591 237.28 194.463 237.566 195.33 237.702C195.891 237.789 196.47 237.82 197.024 237.691C198.165 237.424 199.075 236.473 199.468 235.369C199.66 234.829 199.742 234.256 199.892 233.703C200.071 233.047 200.346 232.422 200.663 231.821C200.973 231.234 201.428 230.675 201.684 230.07C200.127 230.297 198.535 230.264 196.983 230.005C196.205 229.875 195.437 229.688 194.686 229.446C194.118 229.263 193.139 229.071 192.755 228.596C191.761 229.749 191.474 231.608 191.553 233.074C191.556 233.133 191.56 233.191 191.564 233.25" fill="#ffaaa8" fill-rule="nonzero" opacity="1" stroke="none" vectornator:layerName="path"/>
<path d="M196.612 230.196C196.453 229.952 195.98 230.048 195.719 230.261C195.364 230.551 195.134 231.011 194.981 231.435C194.8 231.938 194.738 232.478 194.74 233.012C194.742 233.641 194.846 234.303 195.236 234.797C195.274 234.845 195.325 234.897 195.387 234.892C195.484 234.884 195.513 234.758 195.517 234.661C195.531 234.271 195.544 233.882 195.558 233.492C195.569 233.201 195.579 232.907 195.635 232.621C195.741 232.085 196.004 231.591 196.323 231.148C196.453 230.969 196.596 230.789 196.645 230.574C196.684 230.402 196.666 230.279 196.612 230.196" fill="#ff9090" fill-rule="nonzero" opacity="1" stroke="none" vectornator:layerName="path"/>
<g opacity="0.199997" vectornator:layerName="path">
<clipPath clip-rule="nonzero" id="ClipPath_8">
<path d="M173.37 209.087L194.593 209.087L194.593 193.715L173.37 193.715L173.37 209.087Z"/>
</clipPath>
<g clip-path="url(#ClipPath_8)">
<path d="M187.376 197.202C186.617 196.003 185.831 194.71 184.553 194.093C182.675 193.186 180.424 194.054 178.679 195.197C176.309 196.748 174.211 198.934 173.466 201.666C173.386 201.959 173.323 202.272 173.416 202.561C173.505 202.836 173.725 203.049 173.956 203.224C175.183 204.159 176.827 204.332 178.368 204.268C179.91 204.203 181.456 203.936 182.987 204.131C185.678 204.473 187.891 206.118 190.155 207.471C190.995 207.972 192.541 209.148 193.568 209.085C194.771 209.011 194.783 207.937 194.278 207.038C192.307 203.536 189.529 200.602 187.376 197.202" fill="#000000" fill-rule="nonzero" opacity="1" stroke="none" vectornator:layerName="path"/>
</g>
</g>
<g opacity="0.199997" vectornator:layerName="path">
<clipPath clip-rule="nonzero" id="ClipPath_9">
<path d="M202.677 202.027L212.523 202.027L212.523 190.628L202.677 190.628L202.677 202.027Z"/>
</clipPath>
<g clip-path="url(#ClipPath_9)">
<path d="M211.306 200.187C210.886 198.821 211.128 196.172 211.035 194.293C210.942 192.421 208.403 191.408 206.855 190.932C205.836 190.619 204.654 190.415 203.765 191.002C202.85 191.606 202.582 192.85 202.705 193.939C203.073 197.197 206.246 198.917 208.903 200.258C209.407 200.512 209.916 200.756 210.422 200.999C211.121 201.334 211.819 201.686 212.522 202.027C211.999 201.463 211.532 200.92 211.306 200.187" fill="#000000" fill-rule="nonzero" opacity="1" stroke="none" vectornator:layerName="path"/>
</g>
</g>
<path d="M202.481 211.268C201.897 211.902 201.464 212.678 201.219 213.506C200.866 214.701 201.011 216.049 201.641 217.129C202.422 218.465 203.727 218.945 205.164 219.26C205.206 219.269 205.252 219.278 205.292 219.261C205.339 219.242 205.366 219.193 205.387 219.146C205.555 218.773 205.546 218.326 205.363 217.96C205.221 217.675 204.977 217.427 204.942 217.11C204.905 216.767 205.17 216.417 205.511 216.361C206.813 216.145 206.706 217.828 206.728 218.598C206.735 218.813 206.745 219.04 206.862 219.219C206.97 219.383 207.15 219.481 207.323 219.573C208.131 220.002 208.937 220.435 209.74 220.874C209.955 220.991 210.18 221.112 210.425 221.121C210.639 221.129 210.847 221.051 211.043 220.966C212.428 220.363 213.641 219.161 213.824 217.589C213.894 216.998 213.803 216.397 213.884 215.807C213.907 215.64 213.955 215.457 214.097 215.365C214.416 215.159 214.918 215.453 215.067 215.737C215.156 215.907 215.142 217.02 215.522 216.443C215.835 215.967 215.87 215.13 215.912 214.579C216.09 212.222 215.069 209.495 212.593 208.905C211.668 208.685 210.702 208.715 209.755 208.802C208.435 208.924 207.126 209.153 205.844 209.488C205.044 209.696 204.246 209.95 203.544 210.385C203.15 210.629 202.794 210.928 202.481 211.268" fill="#000000" fill-rule="nonzero" opacity="1" stroke="none" vectornator:layerName="path"/>
<path d="M213.515 226.048C212.977 225.63 212.21 225.368 211.746 224.885C211.3 224.421 211.101 223.682 210.994 223.067C210.877 222.392 210.861 221.702 210.779 221.021C210.758 220.849 210.71 220.646 210.548 220.583C210.381 220.519 210.193 220.658 210.133 220.826C210.073 220.995 210.102 221.18 210.12 221.358C210.275 222.894 209.562 224.407 208.47 225.462C207.796 226.114 206.992 226.534 206.264 227.097C205.482 227.702 204.626 228.208 203.722 228.608C199.982 230.261 195.613 230.098 192.145 227.89C191.813 227.678 191.49 227.451 191.167 227.223C191.004 227.495 191.238 227.828 191.466 228.049C192.734 229.275 194.496 230.438 196.253 230.795C199.868 231.529 203.746 230.244 206.776 228.291C208.131 227.418 209.834 226.251 210.428 224.682C210.208 225.264 211.752 226.314 212.1 226.546C212.6 226.881 213.056 227.272 213.392 227.778C213.58 228.061 213.727 228.425 213.844 228.799C213.902 228.789 214.458 228.687 215.16 228.197C214.796 227.361 214.23 226.604 213.515 226.048" fill="#182e35" fill-rule="nonzero" opacity="1" stroke="none" vectornator:layerName="path"/>
<path d="M167.289 178.431C166.075 177.041 164.551 175.988 162.64 175.718C161.114 175.503 159.559 175.751 158.063 176.119C153.887 177.146 149.471 180.393 146.213 183.153C143.243 185.668 140.702 188.794 139.371 192.452C138.144 195.827 137.928 199.654 135.818 202.56C135.547 202.932 135.231 203.342 135.291 203.799C135.375 204.441 136.138 204.746 136.785 204.776C137.826 204.823 138.879 204.484 139.696 203.839C137.671 207.972 137.796 213.09 140.022 217.12C140.297 217.618 140.639 218.132 141.173 218.329C142.321 218.756 143.36 217.526 143.973 216.465C144.355 218.229 144.967 219.943 145.79 221.55C146.919 223.752 148.544 225.83 150.817 226.809C151.793 227.229 153.082 227.365 153.787 226.569C154.117 226.197 154.247 225.691 154.353 225.205C154.865 222.87 155.095 220.473 155.036 218.082C155.853 219.155 157.598 219.095 158.67 218.279C159.743 217.462 160.277 216.128 160.641 214.83C161.588 211.45 161.706 207.841 160.981 204.406C161.814 204.621 162.592 203.907 163.056 203.183C164.4 201.085 164.67 198.484 164.686 195.993C164.539 193.224 164.604 190.505 164.852 187.749C164.924 186.95 165.002 186.129 165.361 185.411C165.721 184.693 166.432 184.092 167.234 184.105C167.655 184.112 168.055 184.283 168.468 184.361C168.881 184.439 169.366 184.398 169.637 184.076C170.633 182.886 168.024 179.273 167.289 178.431" fill="#000000" fill-rule="nonzero" opacity="1" stroke="none" vectornator:layerName="path"/>
<path d="M186.965 231.258C184.692 230.236 182.109 229.979 179.655 229.689C177.208 229.4 174.743 229.139 172.359 228.493C170.283 227.93 168.233 227.026 166.581 225.628C165.863 225.02 165.188 224.357 164.633 223.593C163.938 222.636 163.564 221.559 163.054 220.509C162.946 220.288 162.349 219.916 162.292 220.377C162.048 222.357 163.445 224.442 164.709 225.848C166.257 227.568 168.361 228.729 170.529 229.47C172.919 230.287 175.419 230.66 177.926 230.897C179.342 231.032 180.762 231.119 182.179 231.245C183.769 231.387 185.339 231.683 186.934 231.762C187.184 231.774 187.141 231.337 186.965 231.258" fill="#182e35" fill-rule="nonzero" opacity="1" stroke="none" vectornator:layerName="path"/>
<path d="M178.109 186.28C176.252 187.428 174.255 189.207 173.578 191.346C173.378 191.978 173.05 193.114 173.853 193.454C174.744 193.83 175.883 192.789 176.497 192.285C177.72 191.283 179.22 190.5 180.545 189.634C181.146 189.24 181.76 188.835 182.191 188.259C184.025 185.811 180.479 184.975 178.752 185.908C178.534 186.026 178.319 186.15 178.109 186.28" fill="#2b454e" fill-rule="nonzero" opacity="1" stroke="none" vectornator:layerName="path"/>
<path d="M205.821 183.196C207.819 184.078 210.041 185.566 211.006 187.592C211.29 188.189 211.772 189.27 211.023 189.716C210.192 190.212 208.921 189.337 208.243 188.923C206.894 188.098 205.301 187.529 203.87 186.853C203.22 186.546 202.556 186.229 202.05 185.718C199.897 183.545 203.295 182.23 205.134 182.916C205.365 183.003 205.595 183.096 205.821 183.196" fill="#2b454e" fill-rule="nonzero" opacity="1" stroke="none" vectornator:layerName="path"/>
<path d="M146.631 229.741C153.952 236.829 168.837 243.832 183.016 242.477C197.809 241.064 201.117 238.082 201.117 238.082L202.382 245.214C202.382 245.214 196.829 248.206 187.319 249.708C177.808 251.211 157.655 249.243 143.973 235.875L146.631 229.741Z" fill="#3857a6" fill-rule="nonzero" opacity="1" stroke="none" vectornator:layerName="path"/>
<path d="M184.512 197.897C185.098 199.273 184.444 200.867 183.051 201.457C181.658 202.046 180.054 201.408 179.468 200.032C178.882 198.655 179.536 197.062 180.929 196.472C182.322 195.883 183.926 196.521 184.512 197.897" fill="#ffffff" fill-rule="nonzero" opacity="1" stroke="none" vectornator:layerName="path"/>
<path d="M184.917 197.569C185.503 198.946 184.849 200.539 183.456 201.129C182.064 201.718 180.459 201.08 179.873 199.704C179.288 198.327 179.942 196.734 181.334 196.144C182.727 195.555 184.331 196.193 184.917 197.569" fill="#000000" fill-rule="nonzero" opacity="1" stroke="none" vectornator:layerName="path"/>
<path d="M182.213 197.917C182.323 198.352 182.769 198.614 183.209 198.502C183.649 198.389 183.916 197.946 183.805 197.511C183.695 197.076 183.249 196.814 182.809 196.926C182.37 197.038 182.103 197.482 182.213 197.917" fill="#fafafa" fill-rule="nonzero" opacity="1" stroke="none" vectornator:layerName="path"/>
<path d="M208.112 193.215C206.872 193.124 205.785 194.054 205.683 195.292C205.581 196.53 206.503 197.608 207.742 197.699C208.982 197.791 210.07 196.861 210.172 195.622C210.274 194.384 209.352 193.306 208.112 193.215" fill="#ffffff" fill-rule="nonzero" opacity="1" stroke="none" vectornator:layerName="path"/>
<path d="M208.266 192.813C207.026 192.722 205.939 193.652 205.837 194.89C205.735 196.128 206.657 197.206 207.896 197.297C209.136 197.389 210.224 196.459 210.326 195.22C210.428 193.982 209.506 192.904 208.266 192.813" fill="#000000" fill-rule="nonzero" opacity="1" stroke="none" vectornator:layerName="path"/>
<path d="M208.697 195.007C208.325 195.036 208.002 194.759 207.976 194.388C207.95 194.016 208.23 193.692 208.602 193.662C208.975 193.633 209.297 193.91 209.324 194.281C209.35 194.653 209.069 194.978 208.697 195.007" fill="#fafafa" fill-rule="nonzero" opacity="1" stroke="none" vectornator:layerName="path"/>
<path d="M212.2 307.312C211.875 306.466 211.703 305.541 211.667 304.583C211.289 294.548 212.652 284.19 217.087 275.087C221.665 265.692 227.623 257.525 228.332 246.675C228.556 243.243 228.286 239.682 229.539 236.479C230.097 235.054 230.942 233.751 231.461 232.311C232.33 229.9 232.238 227.265 232.602 224.728C232.873 222.834 233.477 220.917 234.753 219.452C234.981 219.189 236.12 217.717 238.863 217.385C238.878 213.918 242.271 211.371 245.307 212.413C246.233 211.175 246.945 210.777 247.769 210.432C248.694 210.045 249.671 210.072 250.641 210.317C252.823 210.869 254.263 213.483 253.979 215.622C253.943 215.893 253.884 216.167 253.935 216.435C253.99 216.733 254.173 216.987 254.341 217.239C256.313 220.2 257.143 224.72 254.763 227.66C254.035 228.559 253.072 229.256 252.412 230.206C250.888 232.402 251.31 235.379 250.492 237.924C249.779 240.141 248.161 241.926 246.753 243.782C241.259 251.026 239.874 259.277 238.718 268.152C238.093 272.947 237.502 278.481 237.155 283.312C236.778 288.572 236.061 293.823 234.692 298.924C232.726 306.253 227.709 311.514 219.753 311.57C218.253 311.581 216.723 311.393 215.369 310.751C213.786 310 212.763 308.774 212.2 307.312" fill="#365a64" fill-rule="nonzero" opacity="1" stroke="none" vectornator:layerName="path"/>
<path d="M233.629 302.008C231.807 306.908 227.319 310.669 222.144 311.559C218.36 312.286 213.433 311.526 211.947 307.435C211.432 306.19 211.346 304.803 211.333 303.527C211.163 298.34 211.475 293.118 212.464 288.004C214.103 277.54 220.308 268.887 224.588 259.486C226.676 254.79 227.986 249.776 228.046 244.617C228.138 242.05 228.151 239.377 229.032 236.843C229.95 234.383 231.516 232.339 231.778 229.684C232.175 227.177 232.067 224.498 233.011 221.993C233.851 219.453 236.107 217.36 238.841 217.201L238.677 217.384C238.689 214.923 240.543 212.635 242.957 212.174C243.746 212.018 244.577 212.073 245.331 212.344L245.249 212.369C246.427 210.669 248.616 209.661 250.641 210.317C249.654 210.071 248.577 210.075 247.655 210.52C246.687 210.92 245.93 211.655 245.334 212.5C243.841 211.968 242.134 212.387 240.946 213.38C239.704 214.384 238.983 215.968 239.051 217.548C232.825 218.197 232.837 224.892 232.376 229.773C232.172 232.398 230.569 234.694 229.702 237.073C228.214 241.98 229.294 247.418 227.85 252.406C226.062 260.044 221.789 266.786 218.264 273.651C213.389 282.774 211.764 293.252 211.946 303.512C211.687 307.626 213.958 310.967 218.268 311.276C224.728 312.014 231.25 308.072 233.629 302.008" fill="#2b454e" fill-rule="nonzero" opacity="1" stroke="none" vectornator:layerName="path"/>
<path d="M249.38 227.071C247.966 224.851 249.39 222.406 251.148 220.933C252.108 220.13 253.554 219.716 254.51 220.731C255.014 221.266 255.264 221.993 255.388 222.716C255.596 223.925 255.475 225.226 254.841 226.276C254.488 226.86 253.989 227.348 253.436 227.749C253.081 228.006 252.694 228.234 252.269 228.341C251.179 228.617 249.984 228.019 249.38 227.071" fill="#2b454e" fill-rule="nonzero" opacity="1" stroke="none" vectornator:layerName="path"/>
<path d="M249.38 227.071C250.712 229.016 252.86 228.543 254.168 226.86C255.398 225.425 255.356 223.283 254.693 221.664C253.861 219.639 251.568 220.551 250.446 221.87C249.076 223.175 248.231 225.352 249.38 227.071M249.38 227.071C248.223 225.355 248.913 223.1 250.173 221.626C251.429 219.82 254.214 218.809 255.36 221.352C256.17 223.251 255.947 225.653 254.44 227.111C252.984 228.688 250.65 229.044 249.38 227.071" fill="#182e35" fill-rule="nonzero" opacity="1" stroke="none" vectornator:layerName="path"/>
<path d="M248.858 213.553C248.636 213.653 248.427 213.786 248.244 213.944C247.663 214.444 247.3 215.151 247.017 215.865C246.445 217.303 246.135 218.846 246.108 220.394C246.093 221.204 246.16 222.035 246.491 222.776C247.541 225.122 251.01 223.897 251.999 222.075C252.268 221.58 252.423 221.032 252.552 220.483C252.968 218.709 252.519 216.612 251.744 214.981C251.445 214.353 251.028 213.725 250.382 213.469C249.893 213.275 249.343 213.335 248.858 213.553" fill="#2b454e" fill-rule="nonzero" opacity="1" stroke="none" vectornator:layerName="path"/>
<path d="M248.858 213.553C251.485 212.476 252.463 216.207 252.842 218.126C253.266 220.494 252.409 223.45 249.877 224.196C246.557 225.307 245.509 222.366 245.958 219.665C246.321 217.541 246.825 214.68 248.858 213.553M248.858 213.553C246.792 214.727 246.511 217.552 246.324 219.692C246.163 221.92 246.899 224.51 249.635 223.5C251.891 222.815 252.636 220.311 252.474 218.167C252.29 216.283 251.503 212.493 248.858 213.553" fill="#182e35" fill-rule="nonzero" opacity="1" stroke="none" vectornator:layerName="path"/>
<path d="M241.637 216.105C240.89 217.1 240.366 218.262 240.115 219.481C239.881 220.614 239.889 221.825 240.338 222.892C240.589 223.489 240.837 224.267 241.487 224.518C242.434 224.883 243.501 224.56 244.428 224.146C244.858 223.953 245.287 223.737 245.631 223.416C246.924 222.212 246.966 219.771 246.998 218.133C247.033 216.308 245.938 213.846 243.683 214.51C242.846 214.757 242.176 215.391 241.637 216.105" fill="#2b454e" fill-rule="nonzero" opacity="1" stroke="none" vectornator:layerName="path"/>
<path d="M241.637 216.105C243.208 213.772 246.088 213.671 246.98 216.623C247.573 219.293 247.576 223.51 244.409 224.54C242.268 225.412 240.644 225.144 240.067 222.695C239.423 220.393 240.287 217.961 241.637 216.105M241.637 216.105C240.279 217.934 239.625 220.463 240.413 222.574C240.643 223.079 240.855 223.659 241.196 224.009C242.313 224.931 244.538 223.891 245.468 223.055C246.735 221.55 246.902 218.662 246.625 216.725C245.974 213.796 243.181 213.87 241.637 216.105" fill="#182e35" fill-rule="nonzero" opacity="1" stroke="none" vectornator:layerName="path"/>
<path d="M251.367 228.247C251.305 227.665 251.178 227.094 250.965 226.545C249.85 223.68 246.841 223.079 244.176 224.079C241.395 225.123 238.88 227.59 237.738 230.33C237.107 231.842 236.87 233.725 237.89 235.007C238.468 235.732 239.408 236.153 240.333 236.099C241.744 236.018 242.972 234.928 244.385 234.954C246.292 234.989 248.234 236.509 249.891 234.704C250.615 233.916 250.917 232.834 251.124 231.783C251.352 230.624 251.491 229.414 251.367 228.247" fill="#182e35" fill-rule="nonzero" opacity="1" stroke="none" vectornator:layerName="path"/>
<path d="M237.125 229.061C238.554 229.623 240.895 228.074 241.479 226.792C241.61 226.505 241.69 226.196 241.748 225.885C242.013 224.447 241.769 222.623 241.03 221.34C240.602 220.595 239.785 220.036 238.928 220.092C237.85 220.162 237.053 221.122 236.551 222.079C235.69 223.721 234.663 228.093 237.125 229.061" fill="#2b454e" fill-rule="nonzero" opacity="1" stroke="none" vectornator:layerName="path"/>
<path d="M237.125 229.061C233.666 227.637 236.144 217.739 240.31 220.089C242.376 221.468 242.683 225.558 241.208 227.433C240.193 228.491 238.633 229.5 237.125 229.061M237.125 229.061C238.995 229.559 241.313 227.791 241.549 225.945C241.752 224.194 241.418 221.759 239.929 220.719C236.639 218.856 233.875 227.957 237.125 229.061" fill="#182e35" fill-rule="nonzero" opacity="1" stroke="none" vectornator:layerName="path"/>
<path d="M235.239 245.622C234.869 246.136 234.66 246.767 234.913 247.325C235.263 248.099 236.259 248.281 237.104 248.361C237.311 248.38 237.518 248.4 237.724 248.42C238.299 248.474 238.886 248.528 239.449 248.401C241.497 247.94 242.261 245.248 240.304 244.097C238.847 243.24 236.71 244.123 235.606 245.198C235.474 245.325 235.349 245.468 235.239 245.622" fill="#2b454e" fill-rule="nonzero" opacity="1" stroke="none" vectornator:layerName="path"/>
<path d="M117.582 425.732C112.015 418.634 100.844 413.433 91.0861 410.403C89.0841 409.781 87.0761 409.177 85.0581 408.608C82.9271 408.007 80.7951 407.406 78.6641 406.805C81.6741 409.315 84.9971 411.45 88.5311 413.144C83.9101 414.006 77.6121 413.501 75.2721 413.024C70.5911 412.071 66.1041 410.139 62.2381 407.329C55.0381 402.079 50.0781 393.849 48.8081 385.029C47.2781 386.909 46.3581 389.279 46.2181 391.699C40.9181 384.239 39.1281 374.609 40.6581 365.659C42.2281 356.509 46.8921 347.608 55.0681 342.599C59.1641 340.088 62.2131 338.979 64.5361 338.511C64.1561 342.261 63.8551 345.349 63.6661 349.274C56.7051 355.031 59.9781 364.189 62.7881 367.979C66.9581 373.599 73.8481 376.629 80.7281 377.969C86.5801 379.097 92.5981 379.674 98.2131 381.806C101.337 382.992 104.305 384.73 106.54 387.214C103.558 386.946 100.575 386.679 97.5921 386.411C101.16 387.561 108.887 391.815 113.666 399.941C117.395 406.284 118.045 411.629 118.084 418.987C118.09 420.239 117.943 422.497 117.582 425.732" fill="#2b454e" fill-rule="nonzero" opacity="1" stroke="none" vectornator:layerName="path"/>
</g>
</g>
<g opacity="1" vectornator:layerName="path">
<clipPath clip-rule="nonzero" id="ClipPath_10">
<path d="M0 0L500 0L500 500L0 500L0 0Z"/>
</clipPath>
<g clip-path="url(#ClipPath_10)">
<path d="M327.305 180.137C320.109 181.991 307.652 186.28 304.641 203.267C301.634 220.239 299.447 256.756 299.435 256.833C298.991 259.797 288.92 288.496 286.709 292.616C285.723 294.453 284.885 296.185 283.067 297.274C280.693 298.697 277.95 299.466 275.46 300.656C269.453 303.526 264.61 308.311 259.89 313.007C259.557 313.339 259.211 313.692 259.079 314.144C258.018 317.776 265.16 316.53 266.586 315.641C269.141 314.047 275.664 309.059 272.25 315.908C269.157 322.112 264.151 327.072 259.491 332.098C258.73 332.918 257.937 334.13 258.574 335.049C259.354 336.174 261.131 335.386 262.464 335.698C262.64 336.502 261.859 337.176 261.62 337.963C261.201 339.345 262.641 340.708 264.08 340.834C265.519 340.959 266.887 340.278 268.22 339.723C268.657 339.541 269.111 339.369 269.585 339.36C270.202 339.349 270.784 339.615 271.375 339.793C273.851 340.538 276.744 339.596 278.307 337.537C278.58 337.176 278.837 336.768 279.249 336.579C279.597 336.42 279.997 336.447 280.379 336.452C283.795 336.5 284.631 334.942 286.688 332.798C288.96 330.43 291.262 328.168 293.341 325.614C297.809 320.122 301.184 311.132 304.893 305.111C314.636 289.295 318.671 282.899 322.274 275.768C325.876 268.637 327.358 264.418 328.931 257.264C332.026 243.18 332.581 233.761 333.78 227.418C338.39 203.027 336.951 185.809 327.305 180.137" fill="#ffaaa8" fill-rule="nonzero" opacity="1" stroke="none" vectornator:layerName="path"/>
<path d="M349.259 380.004C350.705 381.377 356.477 378.982 359.988 376.259C363.499 373.536 373.022 369.146 376.774 367.151C380.526 365.155 389.337 362.101 392.702 361.308C401.398 359.256 405.202 358.964 409.445 354.579C412.695 351.22 412.124 347.283 412.124 347.283C412.124 347.283 408.787 351.355 395.69 349.341C382.594 347.327 375.654 343.622 370.916 344.32C366.179 345.018 353.81 348.602 345.654 342.173C343.116 340.173 344.177 337.097 345.268 336.739C343.205 337.882 342.607 339.568 342.032 341.314C341.663 342.436 341.215 343.988 340.884 345.024C340.038 347.671 338.656 352.661 335.122 355.111C333.188 356.452 332.505 356.857 333.205 358.434L349.259 380.004Z" fill="#2b454e" fill-rule="nonzero" opacity="1" stroke="none" vectornator:layerName="path"/>
<path d="M409.275 341.642C413.155 344.903 412.701 346.644 412.249 349.166C411.797 351.689 410.707 352.435 408.137 353.349C404.922 354.492 399.124 354.499 393.427 353.328C387.731 352.157 375.908 347.597 372.321 347.94C368.734 348.283 362.75 350.707 355.519 350.003C348.288 349.301 345.332 347.303 343.5 345.507C341.503 343.549 342.011 341.379 342.011 341.379C342.011 341.379 342.09 336.888 347.878 335.482C352.894 334.263 409.275 341.642 409.275 341.642" fill="#182e35" fill-rule="nonzero" opacity="1" stroke="none" vectornator:layerName="path"/>
<path d="M313.565 366.163L321.329 397.679L337.777 387.292L344.38 382.921C347.063 381.317 351.391 378.723 355.625 376.219C358.333 374.618 355.812 373.196 357.725 371.066C359.639 368.936 364.482 367.222 364.482 367.222C364.482 367.222 360.159 367.103 355.312 368.473C349.496 370.118 347.859 369.94 345.064 366.721C342.292 363.529 339.508 355.956 333.951 358.14L313.565 366.163Z" fill="#ffaaa8" fill-rule="nonzero" opacity="1" stroke="none" vectornator:layerName="path"/>
<path d="M412.125 347.283C413.363 342.835 401.433 333.652 387.479 333.212C373.525 332.772 374.783 335.795 364.937 335.095C355.09 334.395 350.599 333.591 345.268 336.738C342.662 338.246 341.892 343.56 351.396 345.842C360.9 348.124 367.694 344.926 372.14 344.666C376.587 344.407 384.497 348.413 397.306 350.425C407.613 352.043 411.08 351.036 412.125 347.283" fill="#f0f0f0" fill-rule="nonzero" opacity="1" stroke="none" vectornator:layerName="path"/>
<path d="M406.312 392.254C407.758 393.627 413.53 391.232 417.041 388.509C420.552 385.786 430.076 381.396 433.828 379.401C437.579 377.405 446.39 374.351 449.755 373.558C458.451 371.507 462.255 371.214 466.498 366.829C469.748 363.47 469.178 359.534 469.178 359.534C469.178 359.534 465.84 363.605 452.743 361.591C439.647 359.577 432.707 355.872 427.969 356.57C423.232 357.268 410.863 360.852 402.707 354.423C400.169 352.423 401.23 349.347 402.321 348.989C400.259 350.132 399.66 351.818 399.085 353.564C398.716 354.687 398.268 356.238 397.937 357.274C397.091 359.921 395.709 364.911 392.175 367.361C390.241 368.702 389.558 369.107 390.258 370.683L406.312 392.254Z" fill="#365a64" fill-rule="nonzero" opacity="1" stroke="none" vectornator:layerName="path"/>
<path d="M466.328 353.892C470.208 357.153 469.754 358.894 469.302 361.416C468.85 363.939 467.76 364.685 465.19 365.599C461.975 366.742 456.177 366.749 450.481 365.578C444.784 364.407 432.961 359.847 429.374 360.19C425.787 360.533 419.803 362.956 412.572 362.253C405.341 361.551 402.385 359.553 400.553 357.757C398.556 355.799 399.064 353.629 399.064 353.629C399.064 353.629 399.143 349.138 404.931 347.732C409.948 346.513 466.328 353.892 466.328 353.892" fill="#182e35" fill-rule="nonzero" opacity="1" stroke="none" vectornator:layerName="path"/>
<path d="M370.617 378.413L378.381 409.929L394.83 399.542L401.432 395.171C404.115 393.567 408.443 390.973 412.677 388.47C415.385 386.868 412.864 385.446 414.777 383.316C416.691 381.186 421.534 379.472 421.534 379.472C421.534 379.472 417.211 379.353 412.364 380.723C406.548 382.368 404.911 382.19 402.116 378.971C399.344 375.78 396.56 368.206 391.003 370.39L370.617 378.413Z" fill="#ffaaa8" fill-rule="nonzero" opacity="1" stroke="none" vectornator:layerName="path"/>
<path d="M469.178 359.533C470.416 355.085 458.486 345.901 444.532 345.462C430.578 345.021 431.836 348.045 421.989 347.345C412.143 346.645 407.652 345.841 402.321 348.988C399.715 350.496 398.945 355.81 408.449 358.092C417.953 360.374 424.747 357.176 429.193 356.916C433.64 356.657 441.549 360.663 454.359 362.675C464.666 364.293 468.133 363.286 469.178 359.533" fill="#f0f0f0" fill-rule="nonzero" opacity="1" stroke="none" vectornator:layerName="path"/>
<path d="M361.396 358.94C358.968 350.218 353.086 349.364 353.086 349.364L321.819 356.913C321.819 356.913 396.475 315.28 396.448 306.704L313.641 282.874C313.641 282.874 258.859 345.458 248.712 368.475C242.729 382.045 241.799 392.292 247.221 399.234C256.4 410.983 270.448 410.224 294.189 402.683C318.207 395.055 355.964 383.411 355.964 383.411C355.964 383.411 365.229 372.709 361.396 358.94" fill="#365a64" fill-rule="nonzero" opacity="1" stroke="none" vectornator:layerName="path"/>
<path d="M361.967 361.483C361.824 360.648 361.636 359.8 361.396 358.939C361.245 358.396 361.08 357.884 360.905 357.4C360.857 357.269 360.802 357.155 360.753 357.028C360.621 356.687 360.488 356.344 360.345 356.032C360.294 355.92 360.238 355.825 360.186 355.717C360.037 355.41 359.889 355.104 359.733 354.827C359.682 354.737 359.629 354.662 359.578 354.575C359.414 354.297 359.249 354.021 359.079 353.772C359.035 353.708 358.99 353.655 358.946 353.594C358.766 353.338 358.583 353.088 358.399 352.861C358.36 352.814 358.32 352.775 358.281 352.729C358.09 352.501 357.898 352.281 357.706 352.083C357.673 352.049 357.64 352.022 357.607 351.989C357.408 351.789 357.209 351.598 357.014 351.427C356.987 351.405 356.962 351.387 356.935 351.364C356.733 351.192 356.532 351.029 356.336 350.885C356.313 350.868 356.292 350.856 356.27 350.84C356.071 350.696 355.875 350.562 355.686 350.444C355.67 350.434 355.656 350.427 355.641 350.418C355.447 350.299 355.258 350.19 355.078 350.095C355.067 350.09 355.058 350.086 355.047 350.081C354.866 349.986 354.691 349.902 354.528 349.829C354.516 349.825 354.506 349.821 354.494 349.816C354.336 349.747 354.185 349.686 354.048 349.635C354.033 349.63 354.021 349.626 354.007 349.621C353.877 349.574 353.755 349.534 353.65 349.502C353.634 349.497 353.622 349.494 353.606 349.489C353.51 349.461 353.421 349.437 353.35 349.419C353.33 349.414 353.316 349.412 353.299 349.408C353.244 349.395 353.191 349.383 353.158 349.376C353.133 349.372 353.11 349.368 353.103 349.367C353.101 349.366 353.096 349.366 353.095 349.365L353.095 349.366C353.094 349.366 353.089 349.364 353.087 349.364L353.086 349.364L348.573 350.453L321.819 356.913L321.82 356.913L321.819 356.913C321.819 356.913 329.175 348.871 335.897 340.133C335.903 340.124 335.91 340.115 335.917 340.106C335.918 340.106 335.918 340.105 335.919 340.104C336.191 339.75 336.463 339.394 336.733 339.037C336.739 339.029 336.746 339.021 336.752 339.012C336.765 338.996 336.777 338.979 336.79 338.963C337.05 338.619 337.308 338.276 337.564 337.932C337.576 337.915 337.589 337.898 337.602 337.882C338.814 336.253 339.98 334.623 341.052 333.036C341.074 333.004 341.096 332.971 341.118 332.938C341.466 332.421 341.805 331.908 342.131 331.403L312.213 303.279C308.956 320.375 320.884 335.781 320.884 335.781C320.884 335.781 291.896 371.84 280.735 388.123C271.972 400.905 260.393 402.548 251.935 398.229C244.398 394.379 243.732 387.747 243.677 386.869C243.482 391.758 244.606 395.884 247.221 399.233C256.4 410.982 270.448 410.223 294.189 402.683C318.2 395.056 355.943 383.417 355.963 383.41L355.964 383.41C355.964 383.41 363.574 374.621 362.148 362.724C362.098 362.314 362.038 361.9 361.967 361.483" fill="#2b454e" fill-rule="nonzero" opacity="1" stroke="none" vectornator:layerName="path"/>
<g opacity="0.149994" vectornator:layerName="path">
<clipPath clip-rule="nonzero" id="ClipPath_11">
<path d="M302.502 382.385L369.362 382.385L369.362 341.483L302.502 341.483L302.502 382.385Z"/>
</clipPath>
<g clip-path="url(#ClipPath_11)">
<path d="M328.463 369.123C338.415 359.586 363.77 348.234 369.361 345.617C366.324 341.735 362.873 341.49 362.792 341.485L362.791 341.485C362.791 341.485 362.785 341.484 362.783 341.484L362.782 341.484L347.552 346.65L332.321 351.816C332.321 351.816 314.312 379.489 302.501 382.385C302.501 382.385 316.953 380.154 328.463 369.123" fill="#000000" fill-rule="nonzero" opacity="1" stroke="none" vectornator:layerName="path"/>
</g>
</g>
<path d="M389.354 386.552C387.446 378.786 381.735 373.945 381.735 373.945L376.735 375.839C376.735 375.839 388.645 360.254 396.864 348.741C410.586 329.517 414.155 304.498 402.706 281.336L345.773 296.364L313.642 282.874C304.489 315.671 331.111 336.539 331.111 336.539C331.111 336.539 304.544 378.618 298.362 394.101C292.54 408.686 293.461 420.436 299.485 426.861C309.684 437.738 325.696 440.254 347.824 428.815C368.803 417.971 390.164 402.605 390.164 402.605C390.164 402.605 392.127 397.837 389.354 386.552" fill="#365a64" fill-rule="nonzero" opacity="1" stroke="none" vectornator:layerName="path"/>
<path d="M381.734 373.945L376.737 375.838L376.735 375.838C376.735 375.838 351.962 405.674 340.152 408.57C340.152 408.57 354.983 406.721 366.114 395.308C373.386 387.851 381.734 373.945 381.734 373.945" fill="#2b454e" fill-rule="nonzero" opacity="1" stroke="none" vectornator:layerName="path"/>
<path d="M256.578 387.341L256.036 389.765L255.775 390.974C255.71 391.382 255.668 391.795 255.617 392.205L255.347 394.658C256.768 388.229 259.491 382.284 262.57 376.562C262.936 375.836 263.364 375.142 263.771 374.438L264.982 372.319C265.796 370.911 266.687 369.544 267.534 368.155C269.276 365.403 271.064 362.677 272.938 360.005C276.633 354.627 280.547 349.392 284.503 344.179L296.531 328.612C291.831 333.211 287.387 338.06 283.138 343.082C278.88 348.097 274.856 353.317 271.085 358.726C267.358 364.161 263.863 369.789 261.006 375.762C259.59 378.751 258.283 381.802 257.3 384.967L256.578 387.341ZM303.382 417.308L302.94 419.75L302.682 422.22L302.562 423.452C302.546 423.864 302.553 424.28 302.549 424.692L302.564 427.16C303.232 420.61 305.248 414.39 307.645 408.35C307.924 407.587 308.268 406.847 308.592 406.101L309.549 403.856C310.194 402.363 310.921 400.902 311.602 399.425C313.014 396.489 314.475 393.575 316.026 390.704C319.074 384.935 322.357 379.282 325.682 373.647L335.828 356.791C331.692 361.903 327.838 367.235 324.2 372.715C320.551 378.189 317.158 383.839 314.038 389.648C310.965 395.478 308.145 401.472 305.998 407.736C304.937 410.869 303.993 414.051 303.382 417.308M381.79 307.762C381.432 304.196 380.671 300.595 379.061 297.39C379.78 300.885 380.014 304.37 380.042 307.86C380.045 311.347 379.874 314.834 379.541 318.314C379.412 320.057 379.199 321.795 378.988 323.534C378.878 324.403 378.783 325.275 378.659 326.143C378.521 327.009 378.414 327.881 378.293 328.751C377.775 332.231 377.195 335.697 376.538 339.203C378.089 335.982 379.168 332.553 380.018 329.089C380.457 327.356 380.78 325.599 381.099 323.84C381.379 322.074 381.614 320.3 381.783 318.517C382.08 314.948 382.16 311.344 381.79 307.762M386.989 300.969C387.751 303.364 387.914 305.804 388.169 308.25C388.21 308.865 388.254 309.477 388.32 310.085L388.443 311.922C388.517 313.147 388.617 314.37 388.644 315.596C388.734 316.819 388.754 318.046 388.788 319.271C388.803 319.883 388.834 320.497 388.838 321.109C388.829 321.721 388.84 322.334 388.859 322.949C388.845 325.406 388.803 327.844 388.488 330.352C389.706 328.113 390.27 325.566 390.613 323.064C390.953 320.548 390.99 318.012 390.893 315.488C390.747 312.967 390.473 310.449 389.9 307.976C389.746 307.36 389.601 306.742 389.429 306.132C389.234 305.523 389.042 304.917 388.831 304.317C388.34 303.142 387.849 301.925 386.989 300.969" fill="#2b454e" fill-rule="nonzero" opacity="1" stroke="none" vectornator:layerName="path"/>
<path d="M376.971 106.267C380.205 108.998 381.117 112.857 383.966 115.8C388.531 120.514 396.788 120.349 400.828 125.521C402.635 127.833 403.266 130.891 403.162 133.824C403.031 137.496 401.86 141.289 403.076 144.756C404.707 149.41 409.414 152.371 410.459 157.151C411.055 159.879 410.423 162.899 408.6 165.013C407.519 166.268 406.069 167.182 405.084 168.513C403.274 170.962 403.374 174.265 403.22 177.306C403.016 181.345 402.005 185.726 398.796 188.188C395.407 190.787 390.576 190.491 386.828 192.539C384.295 193.924 382.442 196.277 380.106 197.974C378.026 199.485 374.969 200.553 372.558 199.214C370.652 198.155 368.046 196.58 366.494 195.059C364.394 193 363.442 189.998 361.388 187.893C358.092 184.516 352.839 184.194 348.605 182.111C342.711 179.211 338.965 172.449 339.63 165.914C340.436 158.005 346.942 151.174 346.343 143.247C346.05 139.367 344.065 135.851 342.821 132.165C341.577 128.478 341.212 124.008 343.749 121.059C345.729 118.757 348.922 118.009 350.951 115.782C353.329 113.171 352.324 109.412 353.911 106.429C355.326 103.77 358.27 102.084 361.166 101.65C365.379 101.018 369.794 101.817 373.519 103.884C374.653 104.514 375.852 105.322 376.971 106.267" fill="#182e35" fill-rule="nonzero" opacity="1" stroke="none" vectornator:layerName="path"/>
<path d="M367.087 106.535C367.644 107.292 368.162 108.107 368.369 109.023C368.824 111.042 367.579 113.207 365.743 114.162C363.907 115.116 361.643 114.991 359.731 114.198C355.894 112.606 349.78 106.833 353.287 102.378C357.15 97.4729 364.515 103.039 367.087 106.535" fill="#3857a6" fill-rule="nonzero" opacity="1" stroke="none" vectornator:layerName="path"/>
<path d="M298.142 221.927C302.453 203.084 313.934 193.804 327.304 180.137C327.304 180.137 329.378 179.464 338.902 177.718C348.426 175.973 366.392 179.188 379.315 181.7C381.794 183.053 402.9 191.572 402.015 208.421C401.085 226.117 399.086 229.571 399.006 252.344C398.95 268.195 405.631 276.414 408.873 294.86C399.506 312.807 334.055 322.082 308.054 289.344C310.985 280.869 314.221 268.729 308.318 249.483C299.486 243.986 296.134 230.701 298.142 221.927" fill="#3857a6" fill-rule="nonzero" opacity="1" stroke="none" vectornator:layerName="path"/>
<path d="M360.651 170.132C361.669 162.787 369.596 155.619 372.677 149.148C375.648 142.909 377.679 137.34 377.145 131.577C376.829 128.162 374.193 123.828 371.627 122.932C371.592 116.638 363.854 107.162 363.854 107.162C363.854 107.162 352.088 100.502 343.82 99.6967C338.233 99.1527 332.702 99.9007 327.247 101.081C323.517 101.889 319.984 103.132 316.706 105.099C313.559 106.988 309.908 107.655 307.075 110.199C304.549 112.469 302.938 116.105 304.027 119.321C304.674 121.235 306.224 123.064 305.703 125.016C305.351 126.332 304.154 127.208 303.262 128.237C301.478 130.293 300.849 133.29 301.655 135.889C302.46 138.49 304.674 140.605 307.308 141.292C305.986 140.493 305.595 138.49 306.519 137.253C306.285 138.294 307.027 139.301 307.842 139.991C310.594 142.32 314.77 142.735 317.987 141.158C318.705 140.806 319.293 140.175 320.083 140.095C321.085 139.993 322.584 140.656 323.577 140.875C326.036 141.418 328.501 141.944 330.942 142.568C335.235 143.666 339.502 145.079 343.346 147.323C345.996 148.871 347.466 151.959 349.263 154.435C352.751 159.243 356.239 164.05 359.727 168.858C360.035 169.283 360.343 169.707 360.651 170.132" fill="#182e35" fill-rule="nonzero" opacity="1" stroke="none" vectornator:layerName="path"/>
<path d="M370.233 157.375C365.4 160.907 361.626 157.921 361.626 157.921L365.59 179.594C364.73 190.084 352.151 203.22 336.061 200.835C322.794 198.869 333.299 187.514 335.286 184.644L333.748 177.387C333.748 177.387 328.726 177.849 325.323 177.175C317.795 175.682 314.362 169.67 312.158 163.64C309.856 157.34 310.005 148.931 310.295 145.031C310.52 142.008 310.23 139.522 309.837 137.543C308.635 131.487 310.195 124.686 313.68 119.671C314.745 121.086 317.321 122.457 317.65 122.604C319.502 123.432 321.504 123.906 323.519 124.108C326.807 124.438 329.489 124.246 333.303 123.556C334.838 123.279 336.696 122.775 338.17 122.23C338.72 122.026 340.426 121.147 341.763 119.988C341.692 126.96 344.774 136.189 352.55 137.795C352.737 137.833 352.942 137.876 353.058 138.026C353.152 138.149 353.165 138.313 353.173 138.468C353.309 140.848 353.153 146.665 356.98 146.199C359.549 145.885 359.421 142.636 361.8 139.543C364.229 136.386 370.285 135.11 373.066 139.086C376.957 144.649 375.527 153.505 370.233 157.375" fill="#ffaaa8" fill-rule="nonzero" opacity="1" stroke="none" vectornator:layerName="path"/>
<path d="M328.011 136.299L317.438 151.597L327.451 154.752L328.011 136.299Z" fill="#ff9090" fill-rule="nonzero" opacity="1" stroke="none" vectornator:layerName="path"/>
<path d="M311.624 137.543L317.31 134.831C316.614 133.22 314.777 132.521 313.207 133.271C311.638 134.019 310.928 135.932 311.624 137.543" fill="#182e35" fill-rule="nonzero" opacity="1" stroke="none" vectornator:layerName="path"/>
<path d="M340.168 137.483L334.376 135.006C335.004 133.369 336.811 132.595 338.41 133.279C340.01 133.963 340.797 135.845 340.168 137.483" fill="#182e35" fill-rule="nonzero" opacity="1" stroke="none" vectornator:layerName="path"/>
<path d="M333.748 177.387C342.7 175.477 349.758 173.746 353.863 166.748C356.438 162.359 358.32 155.51 358.32 155.51C358.32 155.51 358.14 163.614 355.69 169.32C353.803 173.718 348.496 178.065 334.417 180.608L333.748 177.387Z" fill="#ff9090" fill-rule="nonzero" opacity="1" stroke="none" vectornator:layerName="path"/>
<path d="M333.626 142.495C333.692 143.962 334.89 145.096 336.301 145.029C337.713 144.961 338.803 143.717 338.737 142.251C338.67 140.784 337.473 139.65 336.062 139.717C334.65 139.786 333.56 141.029 333.626 142.495" fill="#182e35" fill-rule="nonzero" opacity="1" stroke="none" vectornator:layerName="path"/>
<path d="M313.713 142.718C313.907 144.173 315.198 145.198 316.599 145.008C317.998 144.818 318.977 143.484 318.783 142.029C318.589 140.574 317.298 139.548 315.898 139.738C314.497 139.929 313.519 141.262 313.713 142.718" fill="#182e35" fill-rule="nonzero" opacity="1" stroke="none" vectornator:layerName="path"/>
<path d="M327.828 160.47C328.861 163.113 331.885 164.42 334.582 163.388C337.278 162.355 338.626 159.376 337.593 156.732L327.828 160.47Z" fill="#c76668" fill-rule="nonzero" opacity="1" stroke="none" vectornator:layerName="path"/>
<path d="M337.936 158.374C338.016 160.509 336.725 162.567 334.581 163.388C333.983 163.617 333.373 163.731 332.767 163.74C332.708 160.88 335.026 158.473 337.936 158.374" fill="#ff9090" fill-rule="nonzero" opacity="1" stroke="none" vectornator:layerName="path"/>
<path d="M397.087 190.675C393.107 186.344 388.439 183.936 379.316 181.7C373.277 186.99 369.995 196.212 366.189 200.353C359.019 208.154 331.324 234.472 331.324 234.472C331.324 234.472 324.318 231.521 317.079 228.491C317.064 228.485 317.054 228.481 317.04 228.474C317.04 228.474 317.057 228.482 317.07 228.487C317.06 228.483 317.05 228.479 317.04 228.474C312.814 226.704 293.161 217.916 292.598 215.05C292.164 212.839 291.702 206.163 291.062 204.003C290.024 200.495 289.083 197.929 287.377 194.693C286.931 193.848 286.475 192.991 285.82 192.295C285.385 191.834 284.824 191.405 284.21 191.221C283.778 191.091 283.353 191.207 282.908 191.391C282.908 191.391 281.32 187.972 280.731 186.959C279.198 184.326 277.043 180.501 275.32 177.988C275.073 177.627 273.942 176.389 273.528 176.069C272.623 175.371 271.36 175.631 270.634 176.777C270.047 177.703 270.46 179.617 270.862 180.615C271.388 181.921 272.858 184.846 273.384 186.152C271.934 183.796 270.411 180.904 269.14 179.132C268.431 178.143 267.441 176.969 266.519 176.174C265.699 175.466 264.53 174.561 263.447 174.28C261.634 173.81 260.073 175.474 260.243 176.757C258.551 176.695 257.34 177.768 256.858 178.903C256.285 180.253 257.499 183.029 258.755 184.876C256.731 183.928 254.76 185.901 254.844 187.745C254.916 189.332 256.981 192.587 257.7 194.004C260.581 199.679 263.004 204.41 264.034 208.551C264.625 210.924 266.221 216.245 266.924 218.587C268.45 223.674 270.612 227.012 274.432 229.968C276.092 231.251 278.036 232.376 281.662 234.883C288.957 239.926 299.515 247.325 303.229 250.044C308.499 253.902 315.651 259.495 323.698 263.941C335.353 270.381 340.964 269.477 348.624 264.473C356.44 259.365 379.822 238.287 391.634 226.571C402.482 215.812 406.623 201.053 397.087 190.675" fill="#ffaaa8" fill-rule="nonzero" opacity="1" stroke="none" vectornator:layerName="path"/>
<path d="M259.176 185.249C260.029 186.104 260.771 186.939 261.482 187.919C262.206 188.917 263.622 191.566 264.24 192.633C264.927 193.819 265.547 195.03 266.095 196.288C266.626 197.508 267.201 198.799 267.404 200.117C267.423 200.242 267.283 200.457 267.169 200.295C266.451 199.27 266.007 197.992 265.45 196.871C264.917 195.797 264.356 194.732 263.773 193.684C263.197 192.645 261.803 190.04 261.172 189.034C260.44 187.865 259.724 186.69 258.995 185.521C258.916 185.395 259.009 185.081 259.176 185.249" fill="#ff9090" fill-rule="nonzero" opacity="1" stroke="none" vectornator:layerName="path"/>
<path d="M260.77 176.938C262.004 178.074 263.026 179.55 264.061 180.866C265.181 182.29 266.907 185.46 267.826 187.019C268.718 188.53 269.55 190.075 270.322 191.65C271.08 193.199 272.121 194.96 272.315 196.695C272.331 196.839 272.165 197.249 271.977 197.029C271.499 196.467 271.226 195.736 270.923 195.07C270.559 194.271 270.208 193.468 269.828 192.677C269.089 191.144 268.294 189.637 267.442 188.163C266.62 186.74 264.978 183.745 264.077 182.371C263.495 181.484 262.966 180.56 262.344 179.7C261.753 178.881 261.107 178.095 260.571 177.239C260.481 177.096 260.579 176.762 260.77 176.938" fill="#ff9090" fill-rule="nonzero" opacity="1" stroke="none" vectornator:layerName="path"/>
<path d="M270.862 180.615C270.508 179.737 270.148 178.153 270.465 177.153C270.848 179.444 273.642 184.537 275.59 187.988C277.826 191.951 277.78 194.227 277.78 194.227C277.78 194.227 276.943 192.407 273.384 186.152C272.858 184.845 271.388 181.921 270.862 180.615" fill="#ff9090" fill-rule="nonzero" opacity="1" stroke="none" vectornator:layerName="path"/>
<path d="M284.209 191.22C284.42 191.283 284.621 191.383 284.817 191.495C286.077 195.666 286.765 201.928 286.765 201.928C286.765 201.928 284.661 195.365 282.907 191.39C283.352 191.206 283.778 191.091 284.209 191.22" fill="#ff9090" fill-rule="nonzero" opacity="1" stroke="none" vectornator:layerName="path"/>
</g>
</g>
<g opacity="1" vectornator:layerName="path">
<clipPath clip-rule="nonzero" id="ClipPath_12">
<path d="M0 0L500 0L500 500L0 500L0 0Z"/>
</clipPath>
<g clip-path="url(#ClipPath_12)">
<path d="M267.31 242.568C268.211 244.174 269.337 245.645 270.463 247.097C270.568 247.232 270.679 247.007 270.609 246.908C269.585 245.483 268.765 243.941 267.961 242.385C267.189 240.89 266.497 239.352 265.915 237.773C265.457 236.529 264.901 235.187 264.861 233.844C264.843 233.266 264.958 232.547 265.442 232.162C265.905 231.793 266.736 231.831 267.291 231.91C268.55 232.088 269.751 232.644 270.706 233.482C270.831 233.592 270.952 233.707 271.069 233.826C270.341 232.645 269.166 231.746 267.836 231.354C266.222 230.878 264.353 231.392 264.09 233.258C263.882 234.727 264.509 236.262 265.011 237.609C265.65 239.32 266.416 240.976 267.31 242.568M269.315 253.452C268.271 250.278 267.046 247.171 265.481 244.214C264.168 241.733 262.467 238.977 259.438 238.527C258.109 238.33 256.774 238.746 255.793 239.664C254.826 240.57 254.25 241.78 253.808 243.01C252.788 245.847 252.157 248.987 252.089 252.003C252.087 252.06 252.168 252.117 252.178 252.037C252.584 248.725 253.267 245.399 254.728 242.373C255.27 241.25 256.021 240.068 257.185 239.517C258.375 238.953 259.784 239.206 260.896 239.836C262.122 240.532 263.017 241.667 263.75 242.846C264.557 244.142 265.238 245.526 265.879 246.91C267.192 249.743 268.276 252.682 269.223 255.656C269.706 257.172 270.197 258.686 270.637 260.215C271.072 261.724 271.502 263.231 272.018 264.715C272.084 264.902 272.254 264.661 272.232 264.547C271.521 260.802 270.506 257.072 269.315 253.452M252.815 192.299C252.05 195.547 251.01 198.779 249.228 201.628C248.566 202.685 247.691 203.778 246.474 204.2C245.23 204.63 243.857 204.226 242.82 203.478C241.677 202.653 240.911 201.427 240.311 200.175C239.65 198.799 239.123 197.349 238.637 195.904C237.641 192.945 236.884 189.904 236.266 186.846C235.95 185.286 235.628 183.727 235.356 182.159C235.088 180.612 234.825 179.067 234.473 177.536C234.428 177.343 234.234 177.564 234.243 177.679C234.541 181.479 235.145 185.298 235.934 189.026C236.626 192.296 237.506 195.517 238.739 198.627C239.774 201.236 241.165 204.161 244.127 204.938C245.427 205.278 246.799 205.011 247.874 204.205C248.934 203.41 249.639 202.269 250.212 201.095C251.535 198.386 252.503 195.333 252.9 192.342C252.908 192.286 252.834 192.22 252.815 192.299M236.742 200.064C236.021 198.37 235.062 196.784 234.101 195.219C234.011 195.073 233.876 195.284 233.936 195.39C234.798 196.918 235.445 198.541 236.075 200.175C236.68 201.745 237.2 203.349 237.606 204.982C237.926 206.269 238.333 207.663 238.227 209.002C238.181 209.579 237.988 210.282 237.466 210.612C236.965 210.928 236.143 210.799 235.6 210.661C234.369 210.347 233.235 209.663 232.377 208.726C232.264 208.603 232.156 208.476 232.053 208.344C232.648 209.598 233.718 210.619 234.998 211.154C236.551 211.803 238.464 211.495 238.929 209.669C239.296 208.231 238.84 206.637 238.487 205.243C238.039 203.473 237.457 201.744 236.742 200.064" fill="#d268cc" fill-rule="nonzero" opacity="1" stroke="none" vectornator:layerName="path"/>
</g>
</g>
<g opacity="1" vectornator:layerName="path">
<clipPath clip-rule="nonzero" id="ClipPath_13">
<path d="M0 0L500 0L500 500L0 500L0 0Z"/>
</clipPath>
<g clip-path="url(#ClipPath_13)">
<path d="M226.213 124.22C224.351 131.608 219.773 137.602 213.82 141.435L210.941 143.061C205.007 145.985 198.046 146.91 191.14 145.169C175.696 141.278 166.297 125.546 170.189 110.102C171.929 103.196 176.042 97.5039 181.429 93.6649L184.225 91.8999C190.422 88.4749 197.869 87.2839 205.258 89.1449C220.708 93.0389 230.106 108.77 226.213 124.22" fill="#fafafa" fill-rule="nonzero" opacity="1" stroke="none" vectornator:layerName="path"/>
<path d="M226.213 124.22C224.351 131.608 219.773 137.602 213.82 141.435L210.941 143.061C205.007 145.985 198.046 146.91 191.14 145.169C175.696 141.278 166.297 125.546 170.189 110.102C171.929 103.196 176.042 97.504 181.429 93.665L184.226 91.9C190.422 88.474 197.869 87.284 205.258 89.145C220.707 93.039 230.106 108.77 226.213 124.22M205.856 86.772C189.1 82.549 172.032 92.747 167.809 109.503C164.021 124.535 171.846 139.809 185.595 145.841L186.787 155.502C186.991 157.152 189.118 157.688 190.079 156.332L195.708 148.389C210.672 149.591 224.799 139.85 228.587 124.818C232.809 108.062 222.612 90.994 205.856 86.772" fill="#365a64" fill-rule="nonzero" opacity="1" stroke="none" vectornator:layerName="path"/>
<path d="M198.201 134.972C177.817 124.113 176.173 112.462 182.099 106.765C187.409 101.661 197.121 105.027 198.201 112.321C199.281 105.027 208.993 101.661 214.303 106.765C220.229 112.462 218.585 124.113 198.201 134.972" fill="#e14a5d" fill-rule="nonzero" opacity="1" stroke="none" vectornator:layerName="path"/>
</g>
</g>
</g>
</g>
</svg>
