<?xml version="1.0" encoding="UTF-8" standalone="no"?>
<!DOCTYPE svg PUBLIC "-//W3C//DTD SVG 1.1//EN" "http://www.w3.org/Graphics/SVG/1.1/DTD/svg11.dtd">
<!-- Created with Vectornator (http://vectornator.io/) -->
<svg height="100%" stroke-miterlimit="10" style="fill-rule:nonzero;clip-rule:evenodd;stroke-linecap:round;stroke-linejoin:round;" version="1.1" viewBox="0 0 500 500" width="100%" xml:space="preserve" xmlns="http://www.w3.org/2000/svg" xmlns:vectornator="http://vectornator.io" xmlns:xlink="http://www.w3.org/1999/xlink">
<defs/>
<g id="Untitled" vectornator:layerName="Untitled">
<g opacity="1" vectornator:layerName="Background Complete">
<path d="M412.715 377.797L232.765 377.797L232.765 124.443L412.715 124.443L412.715 377.797Z" fill="#ececec" fill-rule="nonzero" opacity="1" stroke="none" vectornator:layerName="path"/>
<g opacity="1" vectornator:layerName="path">
<clipPath clip-rule="nonzero" id="ClipPath">
<path d="M47.8812 47.8812L452.119 47.8812L452.119 452.119L47.8812 452.119L47.8812 47.8812Z"/>
</clipPath>
<g clip-path="url(#ClipPath)">
<path d="M189.821 264.705L83.9796 264.705L83.9796 89.5063L189.821 89.5063L189.821 264.705Z" fill="#e1e1e1" fill-rule="nonzero" opacity="1" stroke="none" vectornator:layerName="path"/>
<path d="M186.301 264.705L80.4595 264.705L80.4595 89.5063L186.301 89.5063L186.301 264.705Z" fill="#ececec" fill-rule="nonzero" opacity="1" stroke="none" vectornator:layerName="path"/>
<path d="M181.794 261.151L84.9667 261.151L84.9667 93.0588L181.794 93.0588L181.794 261.151Z" fill="#fafafa" fill-rule="nonzero" opacity="1" stroke="none" vectornator:layerName="path"/>
<path d="M162.941 239.31L103.4 239.31L103.4 114.902L162.941 114.902L162.941 239.31Z" fill="#ececec" fill-rule="nonzero" opacity="1" stroke="none" vectornator:layerName="path"/>
<path d="M103.4 195.285C103.263 183.664 113.711 172.319 125.22 170.696C130.707 169.923 136.538 171.012 141.666 168.909C150.818 165.156 153.73 152.996 162.941 149.389L163.361 239.309L103.4 239.309L103.4 195.285Z" fill="#e1e1e1" fill-rule="nonzero" opacity="1" stroke="none" vectornator:layerName="path"/>
</g>
</g>
<g opacity="1" vectornator:layerName="path">
<clipPath clip-rule="nonzero" id="ClipPath_2">
<path d="M47.8812 47.8812L452.119 47.8812L452.119 452.119L47.8812 452.119L47.8812 47.8812Z"/>
</clipPath>
<g clip-path="url(#ClipPath_2)">
<path d="M428.509 425.367C428.509 425.367 428.891 425.351 429.666 425.343C430.45 425.338 431.617 425.33 433.187 425.321L433.187 425.413C414.996 425.507 340.913 425.577 252.347 425.577C201.109 425.553 154.73 425.531 121.15 425.516C104.367 425.487 90.7865 425.465 81.3912 425.448C76.7029 425.431 73.0615 425.418 70.5819 425.409C69.3522 425.4 68.4128 425.393 67.7709 425.388C67.1378 425.381 66.8128 425.367 66.8128 425.367C66.8128 425.367 67.1378 425.351 67.7709 425.345C68.4128 425.34 69.3522 425.334 70.5819 425.324C73.0615 425.315 76.7029 425.302 81.3912 425.284C90.7865 425.269 104.367 425.246 121.15 425.217C154.73 425.202 201.109 425.181 252.347 425.156C340.913 425.156 414.996 425.226 433.187 425.321L433.187 425.413C431.617 425.402 430.45 425.395 429.666 425.389C428.891 425.383 428.509 425.367 428.509 425.367" fill="#182e35" fill-rule="nonzero" opacity="1" stroke="none" vectornator:layerName="path"/>
</g>
</g>
<path d="M398.265 366.919L217.059 366.919L217.059 111.238L398.265 111.238L398.265 366.919Z" fill="#ffffff" fill-rule="nonzero" opacity="1" stroke="none" vectornator:layerName="path"/>
<g opacity="1" vectornator:layerName="path">
<clipPath clip-rule="nonzero" id="ClipPath_3">
<path d="M47.8812 47.8812L452.119 47.8812L452.119 452.119L47.8812 452.119L47.8812 47.8812Z"/>
</clipPath>
<g clip-path="url(#ClipPath_3)">
<path d="M398.266 366.919C398.264 365.219 398.187 262.284 398.074 111.238L398.266 111.429C343.469 111.435 281.923 111.441 217.08 111.448L217.059 111.448L217.269 111.238C217.255 207.051 217.241 295.651 217.23 366.919L217.059 366.748C327.122 366.852 396.864 366.918 398.266 366.919C396.865 366.921 327.122 366.986 217.059 367.089L216.888 367.089L216.888 366.919C216.878 295.651 216.864 207.051 216.849 111.238L216.849 111.027L217.059 111.027L217.08 111.027C281.923 111.034 343.469 111.04 398.266 111.046L398.457 111.046L398.457 111.238C398.344 262.284 398.267 365.219 398.266 366.919" fill="#182e35" fill-rule="nonzero" opacity="1" stroke="none" vectornator:layerName="path"/>
<path d="M301.215 298.731L234.672 298.731C231.687 298.731 229.266 296.31 229.266 293.324L229.266 286.401C229.266 283.416 231.687 280.995 234.672 280.995L301.215 280.995C304.2 280.995 306.621 283.416 306.621 286.401L306.621 293.324C306.621 296.31 304.2 298.731 301.215 298.731" fill="#f5f5f5" fill-rule="nonzero" opacity="1" stroke="none" vectornator:layerName="path"/>
<path d="M381.926 298.731L317.1 298.731C314.114 298.731 311.693 296.31 311.693 293.324L311.693 286.401C311.693 283.416 314.114 280.995 317.1 280.995L381.926 280.995C384.912 280.995 387.333 283.416 387.333 286.401L387.333 293.324C387.333 296.31 384.912 298.731 381.926 298.731" fill="#f5f5f5" fill-rule="nonzero" opacity="1" stroke="none" vectornator:layerName="path"/>
<path d="M382.998 335.085L234.307 335.085C231.321 335.085 228.9 332.665 228.9 329.679L228.9 322.756C228.9 319.77 231.321 317.35 234.307 317.35L382.998 317.35C385.984 317.35 388.404 319.77 388.404 322.756L388.404 329.679C388.404 332.665 385.984 335.085 382.998 335.085" fill="#f5f5f5" fill-rule="nonzero" opacity="1" stroke="none" vectornator:layerName="path"/>
<path d="M264.782 273.858C264.782 273.975 257.306 274.069 248.085 274.069C238.861 274.069 231.386 273.975 231.386 273.858C231.386 273.742 238.861 273.648 248.085 273.648C257.306 273.648 264.782 273.742 264.782 273.858" fill="#182e35" fill-rule="nonzero" opacity="1" stroke="none" vectornator:layerName="path"/>
<path d="M343.783 273.858C343.783 273.975 337.896 274.069 330.635 274.069C323.373 274.069 317.488 273.975 317.488 273.858C317.488 273.742 323.373 273.648 330.635 273.648C337.896 273.648 343.783 273.742 343.783 273.858" fill="#182e35" fill-rule="nonzero" opacity="1" stroke="none" vectornator:layerName="path"/>
<path d="M285.976 310.029C285.976 310.146 273.849 310.24 258.893 310.24C243.931 310.24 231.807 310.146 231.807 310.029C231.807 309.912 243.931 309.819 258.893 309.819C273.849 309.819 285.976 309.912 285.976 310.029" fill="#182e35" fill-rule="nonzero" opacity="1" stroke="none" vectornator:layerName="path"/>
<path d="M383.143 260.118L231.314 260.118C228.408 260.118 226.052 257.763 226.052 254.857L226.052 245.992C226.052 243.086 228.408 240.73 231.314 240.73L383.143 240.73C386.05 240.73 388.405 243.086 388.405 245.992L388.405 254.857C388.405 257.763 386.05 260.118 383.143 260.118" fill="#e1e1e1" fill-rule="nonzero" opacity="1" stroke="none" vectornator:layerName="path"/>
<path d="M341.81 250.424C341.81 250.541 327.405 250.634 309.64 250.634C291.869 250.634 277.467 250.541 277.467 250.424C277.467 250.308 291.869 250.213 309.64 250.213C327.405 250.213 341.81 250.308 341.81 250.424" fill="#182e35" fill-rule="nonzero" opacity="1" stroke="none" vectornator:layerName="path"/>
<path d="M383.143 142.237L231.314 142.237C228.408 142.237 226.052 139.881 226.052 136.975L226.052 128.11C226.052 125.204 228.408 122.848 231.314 122.848L383.143 122.848C386.05 122.848 388.405 125.204 388.405 128.11L388.405 136.975C388.405 139.881 386.05 142.237 383.143 142.237" fill="#e1e1e1" fill-rule="nonzero" opacity="1" stroke="none" vectornator:layerName="path"/>
<path d="M341.81 132.542C341.81 132.659 327.405 132.753 309.64 132.753C291.869 132.753 277.467 132.659 277.467 132.542C277.467 132.426 291.869 132.332 309.64 132.332C327.405 132.332 341.81 132.426 341.81 132.542" fill="#182e35" fill-rule="nonzero" opacity="1" stroke="none" vectornator:layerName="path"/>
<path d="M398.266 146.931C398.266 147.048 357.661 147.142 307.586 147.142C257.492 147.142 216.896 147.048 216.896 146.931C216.896 146.815 257.492 146.721 307.586 146.721C357.661 146.721 398.266 146.815 398.266 146.931" fill="#ececec" fill-rule="nonzero" opacity="1" stroke="none" vectornator:layerName="path"/>
<path d="M398.266 232.701C398.266 232.817 357.661 232.912 307.586 232.912C257.492 232.912 216.896 232.817 216.896 232.701C216.896 232.584 257.492 232.49 307.586 232.49C357.661 232.49 398.266 232.584 398.266 232.701" fill="#ececec" fill-rule="nonzero" opacity="1" stroke="none" vectornator:layerName="path"/>
<path d="M301.215 184.104L234.672 184.104C231.687 184.104 229.266 181.684 229.266 178.698L229.266 171.775C229.266 168.789 231.687 166.369 234.672 166.369L301.215 166.369C304.2 166.369 306.621 168.789 306.621 171.775L306.621 178.698C306.621 181.684 304.2 184.104 301.215 184.104" fill="#f5f5f5" fill-rule="nonzero" opacity="1" stroke="none" vectornator:layerName="path"/>
<path d="M381.926 184.104L317.1 184.104C314.114 184.104 311.693 181.684 311.693 178.698L311.693 171.775C311.693 168.789 314.114 166.369 317.1 166.369L381.926 166.369C384.912 166.369 387.333 168.789 387.333 171.775L387.333 178.698C387.333 181.684 384.912 184.104 381.926 184.104" fill="#f5f5f5" fill-rule="nonzero" opacity="1" stroke="none" vectornator:layerName="path"/>
<path d="M382.998 220.459L234.307 220.459C231.321 220.459 228.9 218.039 228.9 215.053L228.9 208.13C228.9 205.144 231.321 202.724 234.307 202.724L382.998 202.724C385.984 202.724 388.404 205.144 388.404 208.13L388.404 215.053C388.404 218.039 385.984 220.459 382.998 220.459" fill="#f5f5f5" fill-rule="nonzero" opacity="1" stroke="none" vectornator:layerName="path"/>
<path d="M264.782 159.232C264.782 159.349 257.306 159.443 248.085 159.443C238.861 159.443 231.386 159.349 231.386 159.232C231.386 159.116 238.861 159.022 248.085 159.022C257.306 159.022 264.782 159.116 264.782 159.232" fill="#182e35" fill-rule="nonzero" opacity="1" stroke="none" vectornator:layerName="path"/>
<path d="M343.783 159.232C343.783 159.349 337.896 159.443 330.635 159.443C323.373 159.443 317.488 159.349 317.488 159.232C317.488 159.116 323.373 159.022 330.635 159.022C337.896 159.022 343.783 159.116 343.783 159.232" fill="#182e35" fill-rule="nonzero" opacity="1" stroke="none" vectornator:layerName="path"/>
<path d="M285.976 195.403C285.976 195.519 273.849 195.614 258.893 195.614C243.931 195.614 231.807 195.519 231.807 195.403C231.807 195.287 243.931 195.193 258.893 195.193C273.849 195.193 285.976 195.287 285.976 195.403" fill="#182e35" fill-rule="nonzero" opacity="1" stroke="none" vectornator:layerName="path"/>
<path d="M382.808 345.864C382.808 345.98 370.98 346.074 356.391 346.074C341.798 346.074 329.971 345.98 329.971 345.864C329.971 345.747 341.798 345.653 356.391 345.653C370.98 345.653 382.808 345.747 382.808 345.864" fill="#182e35" fill-rule="nonzero" opacity="1" stroke="none" vectornator:layerName="path"/>
<path d="M294.737 177.101C294.737 177.101 294.317 177.252 293.486 177.415C292.655 177.567 291.403 177.73 289.791 177.623C288.19 177.504 286.209 177.129 284.15 176.078C283.643 175.803 283.139 175.456 282.715 174.992C282.287 174.535 281.97 173.929 281.852 173.267C281.736 172.612 281.814 171.855 282.268 171.263C282.728 170.677 283.552 170.393 284.311 170.613C284.691 170.721 285.032 171.006 285.21 171.37C285.392 171.732 285.433 172.16 285.362 172.55C285.222 173.339 284.781 174.038 284.244 174.625C283.19 175.815 281.797 176.799 280.187 177.396C278.583 177.994 276.755 178.218 274.948 177.871C274.049 177.691 273.142 177.356 272.387 176.746C271.648 176.149 271.036 175.214 271.141 174.154C271.191 173.643 271.394 173.157 271.7 172.745C272.005 172.337 272.427 171.972 272.973 171.855C273.519 171.715 274.118 171.949 274.486 172.353C274.861 172.767 275.02 173.32 275.028 173.847C275.041 174.379 274.914 174.912 274.656 175.386C274.388 175.867 273.995 176.238 273.558 176.538C272.674 177.137 271.648 177.413 270.664 177.7C268.701 178.258 266.554 178.859 264.371 178.369C263.306 178.116 262.268 177.609 261.477 176.799C260.691 176.002 260.154 174.878 260.223 173.706C260.253 172.99 260.525 172.24 261.098 171.743C261.703 171.242 262.561 171.191 263.231 171.515C263.568 171.678 263.877 171.942 264.037 172.3C264.199 172.656 264.228 173.054 264.133 173.417C263.943 174.155 263.403 174.672 262.871 175.083C260.658 176.617 258.135 177.53 255.594 177.849C254.335 178.006 253.003 178.022 251.804 177.517C250.617 177.017 249.666 175.941 249.475 174.661C249.272 173.375 250.13 172.025 251.402 171.753C252.038 171.623 252.734 171.88 253.127 172.372C253.537 172.852 253.708 173.466 253.733 174.052C253.764 174.644 253.634 175.235 253.364 175.756C253.072 176.271 252.669 176.682 252.215 177.012C251.3 177.668 250.249 177.99 249.249 178.255C247.266 178.783 245.178 179.15 243.331 178.469C242.427 178.13 241.639 177.558 241.081 176.831C240.529 176.105 240.206 175.214 240.284 174.338C240.368 173.472 240.778 172.691 241.364 172.142C241.946 171.592 242.777 171.307 243.522 171.497L243.609 171.519L243.612 171.606C243.668 173.384 242.919 174.894 242.026 175.905C241.136 176.947 240.077 177.529 239.194 177.837C238.295 178.139 237.554 178.141 237.071 178.107C236.588 178.04 236.345 177.971 236.345 177.971C236.334 177.892 237.377 178.326 239.152 177.718C240.011 177.399 241.034 176.813 241.887 175.786C242.744 174.789 243.446 173.317 243.376 171.618L243.466 171.726C242.807 171.567 242.074 171.819 241.539 172.329C241.005 172.839 240.629 173.572 240.56 174.361C240.435 175.977 241.738 177.571 243.439 178.177C245.176 178.808 247.195 178.458 249.16 177.923C250.148 177.658 251.16 177.336 252.005 176.723C252.421 176.42 252.793 176.03 253.043 175.584C253.276 175.129 253.394 174.598 253.363 174.069C253.341 173.546 253.179 173.008 252.842 172.618C252.518 172.218 251.977 172.028 251.475 172.128C250.445 172.342 249.672 173.517 249.863 174.607C250.028 175.718 250.886 176.702 251.96 177.148C253.054 177.607 254.315 177.601 255.543 177.444C258.012 177.135 260.495 176.225 262.619 174.749C263.118 174.371 263.586 173.891 263.727 173.317C263.882 172.742 263.607 172.134 263.05 171.894C262.518 171.632 261.816 171.687 261.371 172.062C260.911 172.461 260.668 173.091 260.642 173.728C260.581 174.763 261.056 175.77 261.777 176.504C262.5 177.246 263.468 177.723 264.467 177.96C266.504 178.424 268.592 177.861 270.55 177.303C271.538 177.018 272.524 176.748 273.328 176.202C273.724 175.933 274.081 175.588 274.302 175.19C274.524 174.786 274.637 174.315 274.626 173.856C274.621 173.397 274.48 172.94 274.192 172.623C273.902 172.311 273.465 172.136 273.057 172.241C272.223 172.44 271.617 173.347 271.528 174.194C271.43 175.06 271.954 175.911 272.627 176.452C273.312 177.012 274.167 177.335 275.019 177.508C276.749 177.847 278.515 177.64 280.066 177.069C281.624 176.499 282.977 175.554 284.002 174.408C284.519 173.852 284.928 173.194 285.054 172.498C285.198 171.816 284.868 171.07 284.223 170.897C283.602 170.707 282.871 170.948 282.491 171.438C282.098 171.937 282.013 172.62 282.116 173.222C282.316 174.477 283.297 175.347 284.264 175.871C286.265 176.919 288.224 177.318 289.803 177.46C291.396 177.591 292.64 177.455 293.471 177.331C293.886 177.262 294.203 177.204 294.414 177.157C294.625 177.113 294.735 177.094 294.737 177.101" fill="#ff735d" fill-rule="nonzero" opacity="1" stroke="none" vectornator:layerName="path"/>
<path d="M373.833 176.137C373.833 176.137 373.51 176.365 372.817 176.643C372.129 176.919 371.058 177.261 369.634 177.31C368.222 177.359 366.43 177.115 364.637 176.143C363.759 175.657 362.822 175.022 362.205 174.006C361.91 173.499 361.701 172.897 361.769 172.249C361.848 171.619 362.16 170.994 362.708 170.582C362.98 170.38 363.328 170.244 363.692 170.256C364.055 170.262 364.407 170.428 364.672 170.674C365.193 171.184 365.412 171.937 365.327 172.667C365.228 173.403 364.823 174.06 364.313 174.589C363.798 175.122 363.19 175.554 362.543 175.939C361.245 176.702 359.732 177.215 358.128 177.352C356.537 177.477 354.811 177.304 353.299 176.451C352.552 176.033 351.86 175.433 351.426 174.64C351.213 174.243 351.049 173.823 350.998 173.35C350.956 172.886 351.034 172.417 351.197 171.984C351.522 171.128 352.18 170.345 353.122 170.041C353.589 169.893 354.139 169.935 354.575 170.186C355.023 170.417 355.346 170.832 355.549 171.274C355.942 172.17 355.885 173.236 355.442 174.105C355.011 174.984 354.292 175.67 353.517 176.224C351.95 177.327 350.049 177.982 348.09 178.099C346.131 178.211 344.169 177.785 342.476 176.893C341.633 176.445 340.842 175.896 340.193 175.191C339.551 174.497 339.05 173.589 339.06 172.595C339.092 171.604 339.682 170.662 340.617 170.29C341.083 170.102 341.661 170.175 342.069 170.463C342.486 170.75 342.742 171.193 342.871 171.644C343.151 172.564 342.841 173.55 342.325 174.259C341.812 174.993 341.14 175.546 340.465 176.053C337.718 178.07 334.268 178.681 331.331 178.006C329.871 177.67 328.47 176.967 327.627 175.788C327.208 175.216 326.942 174.514 326.941 173.822C326.922 173.131 327.103 172.461 327.428 171.887C327.76 171.32 328.284 170.85 328.921 170.697C329.554 170.539 330.214 170.73 330.689 171.092C331.634 171.838 332.029 173.028 331.881 174.056C331.726 175.094 331.114 175.916 330.453 176.474C329.779 177.036 329.033 177.371 328.341 177.546C326.948 177.884 325.83 177.787 325.093 177.749C324.74 177.719 324.463 177.694 324.251 177.675C324.061 177.654 323.965 177.64 323.965 177.633C323.965 177.626 324.063 177.626 324.254 177.632C324.465 177.64 324.744 177.652 325.097 177.664C325.832 177.675 326.946 177.743 328.3 177.388C328.968 177.206 329.684 176.871 330.323 176.322C330.951 175.777 331.516 174.988 331.648 174.023C331.778 173.082 331.387 171.966 330.529 171.307C330.099 170.987 329.532 170.833 328.988 170.972C328.444 171.107 327.985 171.518 327.685 172.037C327.088 173.082 327.064 174.539 327.891 175.598C328.672 176.681 330.001 177.351 331.407 177.666C334.248 178.303 337.59 177.697 340.234 175.74C340.887 175.25 341.535 174.707 342.001 174.034C342.472 173.371 342.724 172.536 342.484 171.755C342.374 171.372 342.157 171.014 341.841 170.798C341.526 170.582 341.12 170.53 340.758 170.673C340.023 170.953 339.485 171.788 339.472 172.601C339.463 173.444 339.899 174.265 340.5 174.91C341.104 175.564 341.864 176.094 342.673 176.523C344.296 177.376 346.182 177.787 348.067 177.68C349.95 177.567 351.773 176.936 353.274 175.883C354.016 175.354 354.683 174.71 355.068 173.921C355.465 173.148 355.507 172.215 355.172 171.442C354.854 170.667 354.012 170.168 353.238 170.432C352.467 170.671 351.855 171.368 351.572 172.126C351.428 172.508 351.361 172.916 351.395 173.312C351.435 173.701 351.583 174.099 351.773 174.45C352.159 175.163 352.79 175.719 353.49 176.114C354.902 176.919 356.56 177.098 358.096 176.983C359.643 176.858 361.108 176.369 362.367 175.638C362.994 175.269 363.587 174.85 364.07 174.355C364.551 173.863 364.916 173.262 365.005 172.625C365.086 171.995 364.886 171.319 364.458 170.9C364.028 170.467 363.342 170.462 362.883 170.822C362.413 171.166 362.121 171.729 362.05 172.282C361.985 172.836 362.166 173.403 362.436 173.87C362.999 174.822 363.898 175.454 364.751 175.937C366.487 176.904 368.24 177.169 369.629 177.147C371.032 177.123 372.095 176.812 372.786 176.563C373.483 176.314 373.819 176.111 373.833 176.137" fill="#ff735d" fill-rule="nonzero" opacity="1" stroke="none" vectornator:layerName="path"/>
<path d="M298.673 211.846C298.676 211.853 298.571 211.906 298.363 212.003C298.136 212.106 297.828 212.246 297.435 212.424C296.616 212.787 295.405 213.317 293.809 213.916C292.213 214.504 290.216 215.159 287.81 215.513C286.609 215.69 285.309 215.779 283.932 215.748C282.564 215.704 281.077 215.647 279.614 215.096C278.165 214.577 276.777 213.374 276.335 211.68C276.111 210.853 276.175 209.887 276.654 209.102C277.103 208.327 277.903 207.669 278.887 207.596C279.884 207.519 280.808 208.217 281.209 209.094C281.639 209.965 281.733 211.016 281.412 211.97C281.104 212.919 280.47 213.741 279.72 214.4C278.967 215.064 278.101 215.595 277.18 216.037C275.354 216.902 273.15 217.379 271.042 216.755C268.944 216.143 267.219 214.293 266.778 212.054C266.68 211.493 266.671 210.912 266.766 210.343C266.843 209.773 267.09 209.199 267.462 208.741C267.828 208.289 268.351 207.87 269.018 207.843C269.68 207.816 270.306 208.281 270.512 208.885C270.912 210.087 270.511 211.326 269.916 212.322C269.318 213.327 268.561 214.249 267.65 215.007C265.848 216.544 263.491 217.397 261.177 217.307C258.87 217.236 256.619 216.362 254.979 214.812C254.181 214.03 253.526 213.044 253.337 211.919C253.247 211.369 253.245 210.778 253.445 210.236C253.64 209.699 253.974 209.228 254.393 208.858C254.809 208.486 255.332 208.222 255.899 208.149C256.468 208.058 257.068 208.273 257.491 208.646C258.333 209.442 258.481 210.664 258.214 211.677C257.929 212.706 257.256 213.537 256.537 214.217C255.805 214.892 255.019 215.483 254.186 215.973C252.522 216.955 250.704 217.549 248.906 217.767C247.109 217.976 245.324 217.851 243.717 217.302C242.92 217.021 242.173 216.6 241.583 216.024C240.984 215.458 240.582 214.703 240.427 213.935C240.265 213.167 240.314 212.358 240.637 211.664C240.946 210.972 241.603 210.431 242.335 210.341C243.054 210.232 243.778 210.45 244.306 210.883C244.842 211.322 245.073 212.061 244.934 212.683C244.813 213.319 244.42 213.825 244.001 214.21C243.575 214.599 243.099 214.883 242.632 215.118C241.695 215.574 240.799 215.903 239.975 216.133C238.328 216.599 236.991 216.693 236.096 216.709C235.198 216.72 234.73 216.651 234.73 216.651C234.731 216.645 234.848 216.642 235.078 216.645C235.307 216.646 235.648 216.646 236.094 216.624C236.982 216.581 238.307 216.46 239.93 215.975C240.741 215.737 241.623 215.4 242.542 214.939C242.994 214.705 243.453 214.424 243.853 214.049C244.249 213.68 244.602 213.206 244.703 212.64C244.817 212.076 244.615 211.463 244.145 211.075C243.675 210.698 243.014 210.502 242.375 210.606C241.729 210.693 241.178 211.154 240.893 211.784C240.607 212.411 240.562 213.158 240.718 213.872C240.992 215.346 242.295 216.489 243.825 216.996C245.366 217.515 247.118 217.633 248.864 217.421C250.613 217.201 252.382 216.616 253.997 215.654C254.805 215.176 255.57 214.597 256.276 213.942C256.969 213.284 257.588 212.501 257.84 211.575C258.08 210.676 257.92 209.579 257.226 208.941C256.527 208.273 255.374 208.49 254.658 209.161C254.29 209.487 253.995 209.906 253.827 210.371C253.655 210.832 253.657 211.348 253.739 211.85C253.908 212.86 254.512 213.779 255.267 214.516C256.813 215.978 258.985 216.827 261.189 216.888C263.403 216.971 265.647 216.16 267.378 214.685C268.252 213.957 268.98 213.073 269.552 212.11C269.841 211.622 270.067 211.133 270.172 210.595C270.285 210.068 270.297 209.509 270.122 209.038C269.961 208.565 269.502 208.246 269.031 208.26C268.555 208.273 268.104 208.603 267.785 209.001C267.114 209.811 267.022 210.959 267.184 211.98C267.583 214.049 269.209 215.805 271.156 216.369C273.131 216.961 275.244 216.52 277.014 215.687C278.77 214.842 280.464 213.614 281.061 211.854C281.354 210.999 281.272 210.039 280.886 209.254C280.523 208.461 279.739 207.886 278.909 207.945C278.081 207.998 277.351 208.574 276.944 209.273C276.512 209.975 276.45 210.83 276.65 211.6C277.052 213.168 278.336 214.312 279.721 214.817C281.119 215.356 282.581 215.427 283.938 215.48C285.3 215.521 286.587 215.444 287.777 215.28C290.162 214.952 292.154 214.324 293.754 213.762C295.352 213.188 296.572 212.683 297.401 212.346C297.802 212.183 298.115 212.057 298.347 211.964C298.559 211.879 298.67 211.84 298.673 211.846" fill="#ff735d" fill-rule="nonzero" opacity="1" stroke="none" vectornator:layerName="path"/>
</g>
</g>
<g opacity="1" vectornator:layerName="path"/>
<g opacity="1" vectornator:layerName="path">
<clipPath clip-rule="nonzero" id="ClipPath_4">
<path d="M47.8812 47.8812L452.119 47.8812L452.119 452.119L47.8812 452.119L47.8812 47.8812Z"/>
</clipPath>
<g clip-path="url(#ClipPath_4)">
<path d="M132.919 178.257L132.004 251.922C131.848 264.449 134.179 282.883 153.996 282.226C171.148 280.359 175.698 264.123 175.831 252.432C175.893 246.887 175.958 242.262 176.002 241.694C176.002 241.694 194.777 240.162 196.362 221.618C197.127 212.657 197.202 194.07 197.075 177.255C196.938 159.196 182.933 144.278 164.922 142.963L163.131 142.833C143.738 142.55 132.664 158.863 132.919 178.257" fill="#ffbf9d" fill-rule="nonzero" opacity="1" stroke="none" vectornator:layerName="path"/>
<path d="M176.002 241.694C176.002 241.694 164.252 241.525 152.357 232.784C152.357 232.784 157.262 246.772 175.905 246.452L176.002 241.694Z" fill="#fd9a6c" fill-rule="nonzero" opacity="1" stroke="none" vectornator:layerName="path"/>
<path d="M165.37 184.855C165.001 185.23 162.86 183.506 159.753 183.423C156.651 183.293 154.326 184.864 154 184.464C153.839 184.286 154.223 183.6 155.236 182.889C156.233 182.18 157.92 181.513 159.855 181.579C161.789 181.648 163.397 182.425 164.312 183.201C165.247 183.98 165.551 184.687 165.37 184.855" fill="#182e35" fill-rule="nonzero" opacity="1" stroke="none" vectornator:layerName="path"/>
<path d="M165.277 191.281C165.227 192.608 164.062 193.66 162.674 193.634C161.29 193.607 160.206 192.512 160.255 191.185C160.305 189.858 161.471 188.804 162.855 188.829C164.243 188.856 165.327 189.953 165.277 191.281" fill="#182e35" fill-rule="nonzero" opacity="1" stroke="none" vectornator:layerName="path"/>
<path d="M173.153 206.467C173.151 206.304 174.947 206.127 177.847 205.969C178.58 205.947 179.28 205.853 179.439 205.365C179.649 204.851 179.401 204.044 179.11 203.171C178.554 201.358 177.973 199.458 177.362 197.467C174.947 189.352 173.256 182.701 173.584 182.607C173.911 182.513 176.134 189.014 178.548 197.128C179.127 199.128 179.68 201.035 180.205 202.858C180.419 203.706 180.825 204.679 180.374 205.744C180.138 206.275 179.574 206.63 179.098 206.722C178.621 206.83 178.211 206.808 177.849 206.803C174.946 206.747 173.152 206.63 173.153 206.467" fill="#182e35" fill-rule="nonzero" opacity="1" stroke="none" vectornator:layerName="path"/>
<path d="M164.048 173.173C163.748 173.863 161.261 173.344 158.283 173.497C155.301 173.586 152.856 174.307 152.511 173.644C152.359 173.327 152.822 172.692 153.834 172.078C154.837 171.464 156.407 170.925 158.194 170.851C159.981 170.78 161.582 171.189 162.624 171.72C163.675 172.25 164.179 172.846 164.048 173.173" fill="#182e35" fill-rule="nonzero" opacity="1" stroke="none" vectornator:layerName="path"/>
<path d="M193.555 178.931C193.229 179.492 190.805 178.869 187.867 178.779C184.929 178.635 182.49 179.064 182.18 178.476C182.044 178.196 182.528 177.693 183.552 177.247C184.567 176.8 186.137 176.46 187.898 176.529C189.659 176.601 191.216 177.066 192.219 177.593C193.229 178.12 193.699 178.662 193.555 178.931" fill="#182e35" fill-rule="nonzero" opacity="1" stroke="none" vectornator:layerName="path"/>
<path d="M133.431 192.111C133.124 191.95 120.953 187.408 120.432 200.127C119.911 212.845 132.787 210.745 132.825 210.381C132.862 210.017 133.431 192.111 133.431 192.111" fill="#ffbf9d" fill-rule="nonzero" opacity="1" stroke="none" vectornator:layerName="path"/>
<path d="M129.137 205.403C129.083 205.36 128.909 205.549 128.527 205.705C128.155 205.857 127.522 205.947 126.87 205.672C125.547 205.123 124.503 202.944 124.534 200.649C124.55 199.491 124.838 198.398 125.285 197.503C125.711 196.587 126.34 195.962 127.021 195.87C127.7 195.742 128.163 196.166 128.303 196.53C128.46 196.893 128.369 197.144 128.435 197.168C128.469 197.201 128.717 196.967 128.636 196.437C128.594 196.182 128.457 195.876 128.168 195.619C127.873 195.359 127.429 195.214 126.957 195.245C125.973 195.273 125.053 196.14 124.561 197.123C124.015 198.109 123.664 199.335 123.647 200.636C123.624 203.202 124.838 205.654 126.654 206.262C127.539 206.532 128.297 206.292 128.695 206.008C129.101 205.709 129.18 205.428 129.137 205.403" fill="#fd9a6c" fill-rule="nonzero" opacity="1" stroke="none" vectornator:layerName="path"/>
<path d="M170.151 215.273C170.29 214.952 167.799 214.205 166.047 211.868C165.171 210.718 164.666 209.463 164.287 208.547C163.916 207.624 163.634 207.044 163.498 207.087C163.368 207.126 163.4 207.751 163.604 208.756C163.817 209.749 164.249 211.169 165.241 212.477C166.217 213.797 167.528 214.585 168.49 214.964C169.461 215.357 170.117 215.382 170.151 215.273" fill="#182e35" fill-rule="nonzero" opacity="1" stroke="none" vectornator:layerName="path"/>
<path d="M193.694 186.025C193.326 186.4 191.185 184.676 188.077 184.593C184.975 184.463 182.65 186.034 182.325 185.634C182.163 185.456 182.547 184.77 183.559 184.059C184.558 183.35 186.244 182.683 188.179 182.749C190.113 182.818 191.721 183.595 192.636 184.371C193.571 185.15 193.875 185.857 193.694 186.025" fill="#182e35" fill-rule="nonzero" opacity="1" stroke="none" vectornator:layerName="path"/>
<path d="M193.185 192.184C193.134 193.511 191.969 194.563 190.582 194.536C189.198 194.51 188.114 193.414 188.163 192.087C188.213 190.76 189.378 189.706 190.763 189.732C192.151 189.759 193.235 190.856 193.185 192.184" fill="#182e35" fill-rule="nonzero" opacity="1" stroke="none" vectornator:layerName="path"/>
<path d="M210.011 152.63C207.624 148.456 201.848 146.628 197.494 148.669C198.638 142.83 195.489 136.415 190.169 133.749C184.85 131.082 177.826 132.397 173.832 136.808C173.582 135.227 172.467 133.873 171.097 133.045C169.727 132.216 168.122 131.856 166.531 131.682C161.578 131.144 156.453 132.354 152.264 135.052C150.069 136.466 148.149 138.29 146.585 140.38C139.231 139.515 131.43 142.207 126.446 147.728C120.472 154.345 119.345 169.685 125.889 182.934L127.43 191.241C129.482 191.235 131.36 191.383 132.625 192.519C134.344 194.065 135.112 196.973 137.969 195.87C139.423 195.308 140.75 192.257 141.236 190.777C144.465 180.948 145.537 170.42 144.37 160.141C146.403 157.973 148.856 156.203 151.553 154.956L151.334 155.154C156.517 153.353 162.379 151.583 167.297 154.016C171.11 155.903 173.352 159.861 176.205 163.02C181.609 169.006 188.898 172.258 196.957 172.605C197.23 177.827 196.792 185.207 197.066 190.429L201.458 182.064L201.462 182.105C201.822 181.493 202.119 180.876 202.406 180.257L202.505 180.07L202.505 180.047C202.506 180.044 202.507 180.042 202.508 180.04C203.311 179.388 203.921 178.192 205.278 176.638C207.902 173.632 208.629 169.102 207.078 165.427C211.045 162.709 212.398 156.804 210.011 152.63" fill="#182e35" fill-rule="nonzero" opacity="1" stroke="none" vectornator:layerName="path"/>
<path d="M204.024 177.12C204.018 177.115 204.013 177.111 204.007 177.106L204.024 177.12Z" fill="#182e35" fill-rule="nonzero" opacity="1" stroke="none" vectornator:layerName="path"/>
<path d="M202.409 152.821C202.422 152.818 202.452 152.911 202.501 153.095C202.553 153.277 202.601 153.555 202.618 153.917C202.655 154.635 202.537 155.736 201.877 156.898C201.548 157.473 201.082 158.054 200.457 158.543C199.83 159.022 199.031 159.4 198.139 159.532C196.379 159.821 194.199 159.225 192.836 157.536L193.152 157.265C193.754 157.91 194.084 158.837 194.048 159.759C194.015 160.996 193.477 162.164 192.626 162.963C191.761 163.758 190.658 164.138 189.619 164.243C187.504 164.449 185.67 163.659 184.39 162.805C183.089 161.939 182.2 161.043 181.595 160.43C180.995 159.809 180.686 159.444 180.705 159.426C180.727 159.404 181.075 159.73 181.709 160.312C182.345 160.887 183.261 161.741 184.55 162.554C185.821 163.357 187.588 164.072 189.577 163.857C190.551 163.751 191.572 163.381 192.344 162.662C193.106 161.942 193.599 160.865 193.627 159.75C193.658 158.917 193.366 158.112 192.848 157.55L193.164 157.278C194.403 158.832 196.438 159.419 198.083 159.169C199.775 158.942 201.001 157.831 201.64 156.758C202.3 155.669 202.459 154.618 202.468 153.919C202.474 153.213 202.371 152.829 202.409 152.821" fill="#365a64" fill-rule="nonzero" opacity="1" stroke="none" vectornator:layerName="path"/>
<path d="M186.494 138.883C186.501 138.871 186.595 138.913 186.767 139.004C186.937 139.102 187.184 139.251 187.476 139.483C188.053 139.939 188.87 140.716 189.395 141.973C189.926 143.2 189.994 145.025 188.958 146.556C188.454 147.306 187.63 147.944 186.64 148.146C185.667 148.352 184.561 148.195 183.677 147.572C183.399 147.372 183.163 147.123 182.971 146.87L183.335 146.664C183.741 147.615 183.632 148.675 183.24 149.522C182.856 150.382 182.157 151.048 181.39 151.417C179.827 152.168 178.182 151.924 177.057 151.409C175.908 150.884 175.175 150.158 174.722 149.648C174.27 149.128 174.085 148.795 174.104 148.782C174.131 148.762 174.359 149.062 174.838 149.54C175.317 150.009 176.061 150.679 177.171 151.144C178.254 151.602 179.803 151.785 181.22 151.078C181.916 150.728 182.525 150.133 182.869 149.354C183.217 148.588 183.301 147.648 182.949 146.832L182.278 145.27L183.313 146.625C183.479 146.842 183.681 147.056 183.922 147.23C184.689 147.773 185.684 147.922 186.555 147.743C187.437 147.567 188.167 147.015 188.639 146.334C189.602 144.947 189.586 143.254 189.117 142.083C188.656 140.878 187.904 140.092 187.371 139.609C186.829 139.121 186.474 138.916 186.494 138.883" fill="#365a64" fill-rule="nonzero" opacity="1" stroke="none" vectornator:layerName="path"/>
<path d="M294.425 231.611L265.08 254.021C263.337 255.351 263.079 257.878 264.518 259.534C265.842 261.058 268.125 261.28 269.719 260.042L298.822 237.426L302.761 229.661L294.425 231.611Z" fill="#ff735d" fill-rule="nonzero" opacity="1" stroke="none" vectornator:layerName="path"/>
<g opacity="0.5" vectornator:layerName="path">
<clipPath clip-rule="nonzero" id="ClipPath_5">
<path d="M294.162 237.427L301.071 237.427L301.071 230.543L294.162 230.543L294.162 237.427Z"/>
</clipPath>
<g clip-path="url(#ClipPath_5)">
<path d="M298.99 230.543L301.071 232.966L298.822 237.426C298.822 237.426 296.668 237.535 296.866 235.396C296.866 235.396 294.68 235.623 295.091 233.36C295.091 233.36 293.564 233.223 294.425 231.611L298.99 230.543Z" fill="#ffffff" fill-rule="nonzero" opacity="1" stroke="none" vectornator:layerName="path"/>
</g>
</g>
<path d="M265.081 254.021L269.896 259.904L271.513 258.648L266.894 252.635L265.081 254.021Z" fill="#182e35" fill-rule="nonzero" opacity="1" stroke="none" vectornator:layerName="path"/>
<path d="M262.916 310.197L261.86 310.008L283.481 272.215L280.063 261.32C280.063 261.32 276.102 245.803 279.404 241.841C279.404 241.841 286.624 233.341 288.968 233.459C291.31 233.576 293.183 234.044 293.653 235.801C293.653 235.801 297.635 235.332 298.689 236.621C299.743 237.909 300.563 239.432 300.563 239.432C300.563 239.432 304.897 239.081 306.069 242.829C306.069 242.829 310.168 244.938 310.519 247.982C310.87 251.028 309.7 265.201 308.411 268.832C307.123 272.463 302.32 280.076 300.915 291.321C299.51 302.567 294.555 309.865 290.151 326.299L278.192 331.029L262.916 310.197Z" fill="#ffbf9d" fill-rule="nonzero" opacity="1" stroke="none" vectornator:layerName="path"/>
<path d="M293.447 235.562C293.534 235.685 292.046 236.669 290.923 238.484C289.774 240.283 289.532 242.051 289.384 242.025C289.261 242.039 289.289 240.138 290.507 238.222C291.705 236.295 293.406 235.445 293.447 235.562" fill="#fd9a6c" fill-rule="nonzero" opacity="1" stroke="none" vectornator:layerName="path"/>
<path d="M300.33 239.427C300.411 239.553 298.989 240.41 297.86 242.042C296.706 243.657 296.38 245.284 296.235 245.251C296.11 245.256 296.231 243.486 297.458 241.759C298.667 240.02 300.292 239.308 300.33 239.427" fill="#fd9a6c" fill-rule="nonzero" opacity="1" stroke="none" vectornator:layerName="path"/>
<path d="M305.838 242.711C305.93 242.824 304.852 243.765 303.865 245.193C302.865 246.612 302.352 247.948 302.215 247.901C302.092 247.873 302.413 246.404 303.463 244.912C304.502 243.412 305.769 242.605 305.838 242.711" fill="#fd9a6c" fill-rule="nonzero" opacity="1" stroke="none" vectornator:layerName="path"/>
<path d="M285.535 243.954C285.459 244.073 284.484 243.432 283.136 243.543C281.783 243.617 280.905 244.382 280.813 244.274C280.77 244.233 280.928 243.969 281.321 243.678C281.71 243.386 282.352 243.106 283.102 243.053C283.853 243.004 284.527 243.195 284.952 243.431C285.381 243.667 285.573 243.907 285.535 243.954" fill="#fd9a6c" fill-rule="nonzero" opacity="1" stroke="none" vectornator:layerName="path"/>
<path d="M294.156 249.345C294.021 249.394 293.615 248.132 292.372 247.208C291.152 246.254 289.828 246.197 289.84 246.053C289.838 245.993 290.173 245.915 290.717 245.985C291.258 246.052 291.999 246.307 292.67 246.817C293.34 247.33 293.782 247.977 293.989 248.48C294.201 248.987 294.214 249.33 294.156 249.345" fill="#fd9a6c" fill-rule="nonzero" opacity="1" stroke="none" vectornator:layerName="path"/>
<path d="M302.718 251.173C302.613 251.275 301.673 250.209 300.06 249.792C298.457 249.337 297.107 249.783 297.068 249.642C297.046 249.587 297.353 249.39 297.922 249.254C298.488 249.118 299.32 249.084 300.188 249.317C301.056 249.554 301.757 250.003 302.176 250.406C302.599 250.81 302.766 251.136 302.718 251.173" fill="#fd9a6c" fill-rule="nonzero" opacity="1" stroke="none" vectornator:layerName="path"/>
<path d="M84.5927 292.395C84.5927 292.395 71.3426 367.651 71.9829 374.687C72.6224 381.724 76.1457 392.918 84.1391 394.837C92.1333 396.757 99.4896 394.837 99.4896 394.837L89.8938 302.402L84.5927 292.395Z" fill="#3857a6" fill-rule="nonzero" opacity="1" stroke="none" vectornator:layerName="path"/>
<path d="M123.389 253.578C123.389 253.578 107.532 264.849 104.027 268.164C89.3669 282.029 86.2988 287.704 84.5929 292.395C82.887 297.086 94.77 406.044 94.77 406.044L97.1776 425.079L208.478 425.366L208.478 328.106L191.756 259.657L181.467 256.727L179.39 248.569C179.39 248.569 166.605 239.129 145.519 238.857C139.032 238.774 129.856 241.323 124.73 245.3L123.389 253.578Z" fill="#3857a6" fill-rule="nonzero" opacity="1" stroke="none" vectornator:layerName="path"/>
<path d="M179.307 259.938C179.307 259.938 190.746 259.423 191.756 259.656C195.281 260.47 204.964 269.345 215.99 280.282C226.51 290.717 247.209 312.426 247.209 312.426C247.209 312.426 250.93 308.669 255.172 313.683L271.512 289.913C271.512 289.913 296.039 292.925 299.896 311.438C299.896 311.438 292.379 325.791 286.222 336.053C286.222 336.053 263.427 373.88 245.421 367.03C228.975 360.773 208.354 344.04 205.45 340.466L181.236 323.187C181.236 323.187 164.652 291.563 171.979 275.751L179.307 259.938Z" fill="#3857a6" fill-rule="nonzero" opacity="1" stroke="none" vectornator:layerName="path"/>
<path d="M181.467 256.728C181.462 256.744 181.26 256.702 180.88 256.608C180.452 256.495 179.905 256.35 179.229 256.172C177.793 255.807 175.706 255.306 173.102 254.815C167.902 253.791 160.63 252.824 152.561 252.282C144.486 251.79 137.145 251.836 131.872 252.343C129.233 252.569 127.113 252.899 125.657 253.163C124.971 253.298 124.416 253.408 123.983 253.494C123.598 253.564 123.393 253.593 123.389 253.578C123.385 253.561 123.581 253.5 123.958 253.398C124.388 253.289 124.938 253.149 125.618 252.976C127.069 252.652 129.192 252.269 131.838 251.997C137.127 251.399 144.494 251.298 152.592 251.792C160.684 252.335 167.971 253.36 173.17 254.474C175.774 255.011 177.855 255.565 179.28 255.988C179.948 256.203 180.488 256.377 180.91 256.513C181.28 256.639 181.472 256.712 181.467 256.728" fill="#182e35" fill-rule="nonzero" opacity="1" stroke="none" vectornator:layerName="path"/>
<path d="M138.115 251.066C137.98 251.084 137.61 249.222 137.288 246.906C136.967 244.589 136.815 242.695 136.949 242.677C137.084 242.659 137.453 244.521 137.775 246.838C138.097 249.154 138.249 251.048 138.115 251.066" fill="#182e35" fill-rule="nonzero" opacity="1" stroke="none" vectornator:layerName="path"/>
<path d="M142.271 250.709C142.154 250.754 141.449 248.93 141.292 246.546C141.119 244.162 141.565 242.259 141.687 242.287C141.832 242.308 141.613 244.195 141.782 246.512C141.934 248.829 142.411 250.669 142.271 250.709" fill="#182e35" fill-rule="nonzero" opacity="1" stroke="none" vectornator:layerName="path"/>
<g opacity="0.300003" vectornator:layerName="path">
<clipPath clip-rule="nonzero" id="ClipPath_6">
<path d="M123.756 255.692L177.264 255.692L177.264 251.793L123.756 251.793L123.756 255.692Z"/>
</clipPath>
<g clip-path="url(#ClipPath_6)">
<path d="M123.756 253.482C141.174 256.565 158.831 253.51 177.264 255.692C159.464 252.007 140.929 250.261 123.756 253.482" fill="#000000" fill-rule="nonzero" opacity="1" stroke="none" vectornator:layerName="path"/>
</g>
</g>
<g opacity="0.300003" vectornator:layerName="path">
<clipPath clip-rule="nonzero" id="ClipPath_7">
<path d="M85.0072 394.98L93.1897 394.98L93.1897 321.183L85.0072 321.183L85.0072 394.98Z"/>
</clipPath>
<g clip-path="url(#ClipPath_7)">
<path d="M93.1898 394.98C83.3911 372.034 84.5513 346.097 85.8804 321.183L93.1898 394.98Z" fill="#000000" fill-rule="nonzero" opacity="1" stroke="none" vectornator:layerName="path"/>
</g>
</g>
<path d="M84.5927 308.801C84.6007 308.8 84.6185 308.898 84.6444 309.09C84.6711 309.31 84.705 309.591 84.7471 309.943C84.8303 310.728 84.9468 311.828 85.0955 313.228C85.3817 316.116 85.7892 320.238 86.2921 325.315C87.2873 335.523 88.6472 349.625 90.2682 365.187C91.8932 380.755 93.5158 394.829 94.8142 405.002C95.4529 410.089 96.0027 414.202 96.3891 417.043C96.5735 418.438 96.7182 419.536 96.8217 420.317C96.8629 420.67 96.896 420.951 96.9219 421.169C96.9413 421.363 96.9478 421.462 96.9389 421.464C96.9308 421.465 96.9082 421.368 96.8718 421.178C96.8338 420.96 96.7853 420.682 96.7238 420.331C96.5985 419.552 96.4231 418.461 96.1999 417.07C95.7553 414.237 95.153 410.131 94.4698 405.047C93.0825 394.883 91.4049 380.809 89.779 365.239C88.158 349.674 86.8532 335.564 85.946 325.347C85.5087 320.264 85.1537 316.137 84.9047 313.245C84.7956 311.842 84.7099 310.738 84.6484 309.953C84.6266 309.597 84.6088 309.315 84.5943 309.095C84.5846 308.901 84.5838 308.802 84.5927 308.801" fill="#182e35" fill-rule="nonzero" opacity="1" stroke="none" vectornator:layerName="path"/>
<path d="M159.946 296.489C159.946 296.506 159.698 296.519 159.228 296.528C158.712 296.531 158.028 296.536 157.173 296.541C155.389 296.535 152.807 296.561 149.619 296.636C143.242 296.779 134.436 297.247 124.773 298.391C115.107 299.546 106.437 301.158 100.205 302.516C97.0881 303.191 94.5722 303.772 92.8404 304.197C92.0077 304.392 91.3423 304.548 90.8386 304.666C90.3802 304.768 90.1369 304.813 90.132 304.797C90.128 304.781 90.3632 304.703 90.8136 304.57C91.3116 304.429 91.9697 304.244 92.7927 304.012C94.5115 303.529 97.0178 302.897 100.13 302.176C106.35 300.73 115.03 299.061 124.715 297.902C134.398 296.756 143.226 296.342 149.612 296.288C152.806 296.258 155.391 296.285 157.176 296.35C158.03 296.382 158.714 296.408 159.231 296.429C159.701 296.452 159.946 296.472 159.946 296.489" fill="#182e35" fill-rule="nonzero" opacity="1" stroke="none" vectornator:layerName="path"/>
<path d="M117.205 320.856C117.07 320.851 117.325 310.43 117.777 297.584C118.228 284.73 118.703 274.319 118.839 274.325C118.974 274.329 118.719 284.748 118.268 297.6C117.816 310.448 117.341 320.862 117.205 320.856" fill="#182e35" fill-rule="nonzero" opacity="1" stroke="none" vectornator:layerName="path"/>
<path d="M174.087 319.569C174.072 319.577 173.929 319.351 173.669 318.915C173.392 318.438 173.021 317.8 172.555 316.997C171.559 315.289 170.163 312.889 168.447 309.943C166.759 306.943 164.74 303.326 163.297 298.967C162.593 296.787 162.04 294.432 161.761 291.949C161.51 289.464 161.519 286.874 161.739 284.239C162.224 278.993 163.355 273.994 165.413 269.872C166.426 267.811 167.666 265.988 169.035 264.467C170.409 262.949 171.915 261.753 173.387 260.834C176.35 258.993 179.182 258.341 181.109 258.247C183.049 258.141 184.101 258.413 184.101 258.413C184.097 258.478 183.033 258.276 181.124 258.438C179.226 258.589 176.46 259.283 173.573 261.128C172.138 262.05 170.672 263.239 169.338 264.739C168.009 266.241 166.804 268.039 165.818 270.072C163.817 274.138 162.709 279.075 162.228 284.284C162.01 286.89 161.999 289.446 162.239 291.898C162.508 294.347 163.045 296.669 163.728 298.827C165.129 303.141 167.103 306.757 168.75 309.773C170.409 312.751 171.759 315.176 172.721 316.903C173.154 317.724 173.499 318.379 173.757 318.868C173.988 319.319 174.103 319.56 174.087 319.569" fill="#182e35" fill-rule="nonzero" opacity="1" stroke="none" vectornator:layerName="path"/>
<g opacity="0.300003" vectornator:layerName="path">
<clipPath clip-rule="nonzero" id="ClipPath_8">
<path d="M91.5172 311.438L153.087 311.438L153.087 296.709L91.5172 296.709L91.5172 311.438Z"/>
</clipPath>
<g clip-path="url(#ClipPath_8)">
<path d="M91.9337 304.74C98.9642 304.377 105.965 303.454 112.849 301.981C111.998 305.019 111.601 308.184 111.677 311.338C113.856 308.892 115.461 305.938 116.327 302.779C116.811 306.221 118.766 309.43 121.604 311.438C122.299 308.317 122.458 305.078 122.074 301.904C132.48 300.65 142.832 298.936 153.088 296.771C132.336 296.263 111.511 298.856 91.5173 304.437" fill="#000000" fill-rule="nonzero" opacity="1" stroke="none" vectornator:layerName="path"/>
</g>
</g>
<path d="M225.738 356.616C225.73 356.629 225.565 356.53 225.258 356.33C224.918 356.104 224.477 355.81 223.928 355.443C222.778 354.666 221.126 353.523 219.095 352.097C215.031 349.246 209.463 345.244 203.391 340.716C197.318 336.185 191.892 331.989 188.001 328.909C186.054 327.369 184.488 326.112 183.415 325.231C182.907 324.809 182.5 324.47 182.185 324.209C181.907 323.973 181.766 323.842 181.775 323.83C181.784 323.82 181.943 323.927 182.238 324.143C182.565 324.388 182.989 324.706 183.517 325.102C184.658 325.976 186.242 327.189 188.183 328.674C192.121 331.694 197.572 335.85 203.642 340.378C209.712 344.904 215.25 348.942 219.268 351.854C221.245 353.292 222.859 354.464 224.022 355.309C224.553 355.702 224.979 356.018 225.306 356.261C225.597 356.482 225.746 356.604 225.738 356.616" fill="#182e35" fill-rule="nonzero" opacity="1" stroke="none" vectornator:layerName="path"/>
<path d="M252.904 331.806C252.83 331.804 252.878 330.584 252.735 328.629C252.597 326.676 252.203 323.986 251.32 321.131C250.428 318.279 249.229 315.838 248.235 314.151C247.245 312.46 246.515 311.482 246.573 311.438C246.597 311.42 246.798 311.649 247.143 312.082C247.493 312.51 247.957 313.162 248.49 313.996C249.558 315.659 250.819 318.114 251.722 321.007C252.617 323.9 252.97 326.636 253.033 328.613C253.067 329.601 253.055 330.403 253.008 330.953C252.968 331.505 252.933 331.808 252.904 331.806" fill="#182e35" fill-rule="nonzero" opacity="1" stroke="none" vectornator:layerName="path"/>
<path d="M257.912 329.978C257.844 329.965 257.998 329.02 258.115 327.488C258.234 325.956 258.271 323.828 258.007 321.502C257.736 319.174 257.216 317.109 256.752 315.644C256.291 314.178 255.926 313.294 255.988 313.267C256.015 313.254 256.133 313.463 256.325 313.853C256.519 314.242 256.765 314.82 257.034 315.549C257.576 317.004 258.151 319.09 258.425 321.452C258.694 323.815 258.608 325.977 258.412 327.518C258.315 328.288 258.207 328.908 258.106 329.33C258.008 329.753 257.94 329.983 257.912 329.978" fill="#182e35" fill-rule="nonzero" opacity="1" stroke="none" vectornator:layerName="path"/>
<path d="M295.881 319.569C295.858 319.574 295.894 319.413 295.694 319.265C295.6 319.197 295.45 319.083 295.366 318.909C295.271 318.741 295.21 318.531 295.093 318.336C294.878 317.932 294.341 317.618 293.95 317.02C293.548 316.443 293.251 315.702 292.975 314.886C292.48 313.245 291.671 311.364 290.2 309.65C289.482 308.788 288.623 307.97 287.701 307.159C286.775 306.35 285.778 305.564 284.684 304.857C283.586 304.115 282.571 303.375 281.458 302.854C280.35 302.311 279.279 301.788 278.257 301.287C277.234 300.805 276.286 300.305 275.355 299.906C274.43 299.512 273.564 299.142 272.766 298.803C272.372 298.623 271.993 298.499 271.64 298.29C271.297 298.084 271.011 297.862 270.721 297.701C270.423 297.542 270.144 297.394 269.883 297.255C269.618 297.115 269.405 296.933 269.212 296.811C268.814 296.562 268.462 296.425 268.239 296.305C268.011 296.189 267.901 296.111 267.907 296.1C267.915 296.086 268.038 296.138 268.273 296.227C268.506 296.322 268.865 296.432 269.296 296.67C269.704 296.958 270.199 297.189 270.834 297.494C271.146 297.656 271.446 297.874 271.774 298.057C272.09 298.236 272.498 298.363 272.888 298.531C273.689 298.855 274.559 299.207 275.488 299.583C276.422 299.967 277.393 300.462 278.428 300.939C279.455 301.432 280.529 301.949 281.641 302.484C282.778 303.01 283.844 303.781 284.917 304.505C286.025 305.222 287.042 306.027 287.973 306.85C288.901 307.673 289.769 308.511 290.499 309.403C291.989 311.165 292.803 313.146 293.258 314.793C293.513 315.608 293.783 316.33 294.146 316.89C294.484 317.458 295.007 317.789 295.236 318.256C295.355 318.483 295.4 318.693 295.478 318.852C295.547 319.021 295.652 319.109 295.75 319.202C295.958 319.397 295.886 319.584 295.881 319.569" fill="#182e35" fill-rule="nonzero" opacity="1" stroke="none" vectornator:layerName="path"/>
<path d="M192.164 423.483C192.047 423.483 191.953 403.027 191.953 377.798C191.953 352.562 192.047 332.111 192.164 332.111C192.28 332.111 192.374 352.562 192.374 377.798C192.374 403.027 192.28 423.483 192.164 423.483" fill="#182e35" fill-rule="nonzero" opacity="1" stroke="none" vectornator:layerName="path"/>
</g>
</g>
</g>
<g opacity="0.100006" vectornator:layerName="path">
<clipPath clip-rule="nonzero" id="ClipPath_9">
<path d="M346.093 404.738L404.999 426.033L426.693 366.023L367.787 344.728L346.093 404.738Z"/>
</clipPath>
<g clip-path="url(#ClipPath_9)">
<path d="M385.169 370.891C385.359 369.75 385.408 368.587 385.522 367.433C385.492 364.614 385.489 361.799 384.752 359.054C384.552 358.306 384.286 357.559 383.936 356.87C382.848 354.723 381.052 353.975 378.743 354.646C377.013 355.151 375.538 356.109 374.209 357.285C371.309 359.853 368.977 362.853 368.217 366.721C367.451 370.628 368.245 374.298 370.9 377.374C373.879 380.823 378.447 380.953 381.715 377.767C383.654 375.877 384.726 373.529 385.169 370.891" fill="#000000" fill-rule="nonzero" opacity="1" stroke="none" vectornator:layerName="path"/>
<path d="M403.744 378.89C406.944 375.528 408.115 371.488 406.975 366.981C405.892 362.689 403.446 359.214 399.832 356.62C399.209 356.171 398.484 355.825 397.758 355.563C395.761 354.841 394.13 355.368 392.884 357.096C391.625 358.841 391.094 360.873 390.72 362.944C390.442 364.501 390.265 366.077 390.042 367.644C389.785 370.561 389.967 373.402 391.27 376.084C392.106 377.807 393.26 379.257 394.933 380.241C397.789 381.924 401.31 381.447 403.744 378.89" fill="#000000" fill-rule="nonzero" opacity="1" stroke="none" vectornator:layerName="path"/>
<path d="M411.483 396.45C415.629 394.841 417.976 391.687 418.753 387.343C418.839 386.864 418.815 386.365 418.841 385.876C418.983 382.835 418.478 379.932 416.917 377.27C416.77 377.021 416.611 376.777 416.435 376.548C414.681 374.263 412.515 373.908 410.129 375.532C408.362 376.733 407.054 378.371 405.9 380.13C404.393 382.429 402.995 384.784 402.599 387.583C402.359 389.29 402.458 390.964 403.071 392.584C404.421 396.154 407.925 397.831 411.483 396.45" fill="#000000" fill-rule="nonzero" opacity="1" stroke="none" vectornator:layerName="path"/>
<path d="M363.556 402.478C363.485 402.897 363.45 403.32 363.385 403.871C363.324 408.02 365.388 411.01 369.081 412.911C372.978 414.918 377.105 415.024 381.26 413.911C384.02 413.172 386.649 413.291 389.309 414.325C393.256 415.858 397.297 416.185 401.339 414.721C404.732 413.493 407.153 411.25 407.969 407.615C408.606 404.769 407.959 402.087 406.407 399.684C405.558 398.369 404.517 397.134 403.383 396.053C400.87 393.661 398.763 390.995 397.142 387.92C393.861 381.692 386.237 379.529 380.204 383.089C378.341 384.189 376.872 385.693 375.821 387.589C374.43 390.099 372.524 392.099 370.092 393.64C367.105 395.53 364.846 398.048 363.79 401.505C363.693 401.823 363.61 402.15 363.556 402.478" fill="#000000" fill-rule="nonzero" opacity="1" stroke="none" vectornator:layerName="path"/>
<path d="M354.888 382.114C354.69 387.049 356.372 390.665 360.095 393.202C363.905 395.799 368.308 394.525 370.118 390.403C370.755 388.95 371.003 387.417 370.906 385.835C370.68 382.123 369.033 378.943 367.074 375.913C366.381 374.844 365.492 373.856 364.531 373.016C362.523 371.263 360.325 371.42 358.468 373.327C356.833 375.006 355.946 377.091 355.391 379.321C355.129 380.376 355.002 381.465 354.888 382.114" fill="#000000" fill-rule="nonzero" opacity="1" stroke="none" vectornator:layerName="path"/>
</g>
</g>
<g opacity="0.100006" vectornator:layerName="path 1">
<clipPath clip-rule="nonzero" id="ClipPath_10">
<path d="M285.101 426.033L346.093 411.772L331.565 349.637L270.573 363.898L285.101 426.033Z"/>
</clipPath>
<g clip-path="url(#ClipPath_10)">
<path d="M299.407 376.355C298.945 375.296 298.351 374.293 297.818 373.264C296.256 370.917 294.719 368.559 292.605 366.659C292.029 366.142 291.399 365.661 290.73 365.273C288.648 364.066 286.734 364.419 285.164 366.24C283.989 367.606 283.275 369.214 282.802 370.924C281.771 374.658 281.451 378.444 282.923 382.101C284.411 385.795 287.076 388.438 290.979 389.569C295.357 390.837 299.257 388.455 300.261 384.003C300.855 381.361 300.474 378.809 299.407 376.355" fill="#000000" fill-rule="nonzero" opacity="1" stroke="none" vectornator:layerName="path"/>
<path d="M319.34 372.935C320.189 368.372 318.969 364.347 315.557 361.19C312.308 358.182 308.364 356.602 303.92 356.398C303.152 356.361 302.356 356.466 301.605 356.642C299.536 357.126 298.457 358.456 298.355 360.584C298.251 362.734 298.913 364.727 299.729 366.666C300.344 368.124 301.055 369.541 301.722 370.977C303.097 373.562 304.799 375.844 307.353 377.383C308.993 378.372 310.751 378.958 312.69 378.871C316.002 378.725 318.693 376.405 319.34 372.935" fill="#000000" fill-rule="nonzero" opacity="1" stroke="none" vectornator:layerName="path"/>
<path d="M335.401 383.437C337.999 379.828 338.248 375.904 336.531 371.838C336.342 371.39 336.05 370.985 335.805 370.561C334.266 367.934 332.26 365.775 329.501 364.395C329.241 364.266 328.975 364.149 328.703 364.053C325.987 363.093 323.977 363.977 322.862 366.639C322.036 368.608 321.831 370.695 321.823 372.799C321.814 375.547 321.925 378.284 323.12 380.846C323.848 382.408 324.845 383.758 326.242 384.782C329.319 387.038 333.171 386.534 335.401 383.437" fill="#000000" fill-rule="nonzero" opacity="1" stroke="none" vectornator:layerName="path"/>
<path d="M298.509 414.619C298.678 415.008 298.879 415.381 299.125 415.879C301.335 419.39 304.696 420.772 308.828 420.353C313.189 419.91 316.706 417.75 319.584 414.551C321.494 412.427 323.763 411.093 326.557 410.51C330.701 409.643 334.267 407.715 336.858 404.284C339.033 401.405 339.839 398.204 338.542 394.712C337.525 391.979 335.519 390.084 332.909 388.915C331.48 388.276 329.935 387.807 328.395 387.519C324.983 386.884 321.763 385.798 318.728 384.104C312.583 380.672 305.012 383.015 301.895 389.287C300.933 391.225 300.521 393.287 300.674 395.45C300.876 398.312 300.369 401.028 299.17 403.646C297.696 406.859 297.175 410.201 298.174 413.675C298.266 413.995 298.376 414.314 298.509 414.619" fill="#000000" fill-rule="nonzero" opacity="1" stroke="none" vectornator:layerName="path"/>
<path d="M280.14 402.273C282.665 406.517 286.046 408.632 290.551 408.729C295.16 408.829 298.156 405.361 297.427 400.918C297.169 399.353 296.541 397.932 295.597 396.659C293.384 393.67 290.27 391.902 286.975 390.43C285.812 389.912 284.528 389.568 283.265 389.388C280.625 389.013 278.869 390.343 278.352 392.954C277.896 395.253 278.289 397.484 279.04 399.656C279.395 400.684 279.882 401.665 280.14 402.273" fill="#000000" fill-rule="nonzero" opacity="1" stroke="none" vectornator:layerName="path"/>
</g>
</g>
</g>
</svg>
